<?xml version="1.0" encoding="UTF-8"?>
<svg version="1.1" xmlns="http://www.w3.org/2000/svg" width="500" height="500">
<path d="M0 0 C165 0 330 0 500 0 C500 165 500 330 500 500 C335 500 170 500 0 500 C0 335 0 170 0 0 Z " fill="#FEFEFE" transform="translate(0,0)"/>
<path d="M0 0 C1.92960696 0.02271532 3.85932661 0.03868045 5.7890625 0.04296875 C17.74019999 0.09235362 28.30199418 2.61376066 39.66308594 6.25048828 C43.07496327 7.32866293 46.51154772 8.31857007 49.95019531 9.30761719 C52.7458148 10.23370488 55.21138358 11.54027308 57.796875 12.93164062 C62.12201777 14.96151692 66.73250769 16.32231616 71.2734375 17.79101562 C72.22347656 18.20222656 73.17351562 18.6134375 74.15234375 19.03710938 C74.48234375 20.02710937 74.81234375 21.01710938 75.15234375 22.03710938 C76.79636462 22.75781571 78.46849182 23.41512474 80.15234375 24.03710938 C82.00925733 25.14432078 83.84222718 26.29244055 85.65234375 27.47460938 C88.40741561 29.26617998 91.13033073 31.02474217 93.99609375 32.63476562 C94.70765625 33.09753906 95.41921875 33.5603125 96.15234375 34.03710938 C96.15234375 34.69710937 96.15234375 35.35710937 96.15234375 36.03710938 C96.68988281 36.26785156 97.22742188 36.49859375 97.78125 36.73632812 C100.8573202 38.42385923 103.43372478 40.58178152 106.08984375 42.84960938 C106.93494507 43.5695105 106.93494507 43.5695105 107.79711914 44.30395508 C116.76954519 52.05767322 125.40075473 60.2473053 132.15234375 70.03710938 C132.84328125 70.9575 133.53421875 71.87789063 134.24609375 72.82617188 C134.97828125 73.80328125 135.71046875 74.78039062 136.46484375 75.78710938 C137.14160156 76.68945312 137.81835938 77.59179688 138.515625 78.52148438 C140.02068188 80.83474603 140.60298027 82.38964495 141.15234375 85.03710938 C141.66796875 85.55273438 142.18359375 86.06835938 142.71484375 86.59960938 C143.18921875 87.07398438 143.66359375 87.54835938 144.15234375 88.03710938 C144.15234375 89.02710938 144.15234375 90.01710938 144.15234375 91.03710938 C144.81234375 91.03710938 145.47234375 91.03710938 146.15234375 91.03710938 C146.60673828 92.16246094 146.60673828 92.16246094 147.0703125 93.31054688 C149.16310683 98.42340441 151.29785202 103.4122298 153.90234375 108.28710938 C156.14002816 112.6221845 156.8825941 116.18161575 157.15234375 121.03710938 C157.81234375 121.03710938 158.47234375 121.03710938 159.15234375 121.03710938 C160.15005333 124.76155789 161.12188704 128.49232777 162.08984375 132.22460938 C162.36763672 133.26037109 162.64542969 134.29613281 162.93164062 135.36328125 C166.32328936 148.56210704 166.33890925 161.74428477 166.33764648 175.28369141 C166.33983436 177.90088144 166.35806672 180.51764955 166.37695312 183.13476562 C166.41876482 195.56787753 166.30910245 208.15283133 161.8671875 219.93164062 C161.06774476 222.28628344 160.63865911 224.5879817 160.21484375 227.03710938 C159.43115333 231.21893283 158.12423317 234.7105867 156.29296875 238.53710938 C154.42224602 242.63732359 152.94078885 246.88652396 151.3984375 251.11914062 C150.24318575 253.82438532 148.96542595 255.75038491 147.15234375 258.03710938 C146.44719529 260.18444864 146.44719529 260.18444864 146.15234375 262.03710938 C145.49234375 262.03710938 144.83234375 262.03710938 144.15234375 262.03710938 C143.87390625 262.76929688 143.59546875 263.50148438 143.30859375 264.25585938 C133.27724612 288.38531719 108.02965857 313.69323447 85.15234375 326.03710938 C84.16234375 326.36710937 83.17234375 326.69710938 82.15234375 327.03710938 C82.15234375 327.69710938 82.15234375 328.35710937 82.15234375 329.03710938 C80.45963542 329.72070312 78.76692708 330.40429688 77.07421875 331.08789062 C75.07783025 331.99380375 75.07783025 331.99380375 73.26953125 333.50195312 C70.78270818 335.30512926 68.41126509 336.22892635 65.52734375 337.28710938 C64.37621094 337.71378906 63.22507812 338.14046875 62.0390625 338.58007812 C61.41435059 338.81130371 60.78963867 339.0425293 60.14599609 339.28076172 C58.03673835 340.08096751 55.94807364 340.92302243 53.859375 341.77539062 C32.37744933 350.49422193 11.49683274 353.45378931 -11.59765625 353.34960938 C-12.48017059 353.34712189 -13.36268494 353.3446344 -14.27194214 353.34207153 C-39.79585863 353.23078001 -64.1879064 349.58361516 -86.84765625 337.03710938 C-89.16138909 335.97598362 -91.49141672 335.00102554 -93.84765625 334.03710938 C-93.84765625 333.37710937 -93.84765625 332.71710938 -93.84765625 332.03710938 C-95.02328125 331.72773437 -95.02328125 331.72773437 -96.22265625 331.41210938 C-104.74579808 328.17919351 -111.80107509 322.69909915 -118.84765625 317.03710938 C-120.4095561 315.84882012 -121.97205202 314.66131392 -123.53515625 313.47460938 C-127.28088626 310.55688284 -130.65578739 307.5563494 -133.84765625 304.03710938 C-133.84765625 303.37710937 -133.84765625 302.71710938 -133.84765625 302.03710938 C-134.43933594 301.77373779 -135.03101563 301.51036621 -135.640625 301.23901367 C-139.39855488 299.19252155 -141.96844197 295.96675036 -144.84765625 292.84960938 C-145.46382812 292.20185547 -146.08 291.55410156 -146.71484375 290.88671875 C-150.4838479 286.83867888 -153.24325213 282.90986546 -155.84765625 278.03710938 C-156.54890625 277.19148438 -157.25015625 276.34585937 -157.97265625 275.47460938 C-160.060961 272.7598132 -160.93246363 270.31654961 -161.84765625 267.03710938 C-162.50765625 267.03710938 -163.16765625 267.03710938 -163.84765625 267.03710938 C-164.09515625 266.33585937 -164.34265625 265.63460938 -164.59765625 264.91210938 C-165.78604869 261.94049753 -165.78604869 261.94049753 -167.78515625 259.16210938 C-169.92910519 255.91370188 -171.37660392 252.61527325 -172.84765625 249.03710938 C-173.12730225 248.36808594 -173.40694824 247.6990625 -173.69506836 247.00976562 C-177.78972861 237.13393613 -180.99233388 227.60540134 -182.84765625 217.03710938 C-183.11328022 215.6563973 -183.38162273 214.27620611 -183.65234375 212.89648438 C-185.51641194 203.30201576 -187.00655213 194.04293961 -186.98046875 184.26757812 C-186.98142548 183.46475906 -186.9823822 182.66194 -186.98336792 181.83479309 C-186.98404348 180.15328899 -186.98223311 178.47178218 -186.97802734 176.7902832 C-186.97263466 174.21429659 -186.97801153 171.63848152 -186.984375 169.0625 C-186.9837148 167.42252566 -186.98243483 165.78255142 -186.98046875 164.14257812 C-186.98249298 163.37382858 -186.98451721 162.60507904 -186.98660278 161.81303406 C-186.97253102 158.62240773 -186.86409218 156.08641717 -185.84765625 153.03710938 C-185.58015771 150.68486678 -185.33345519 148.33024083 -185.09765625 145.97460938 C-183.60185231 132.72212329 -180.03563438 118.61772981 -173.72265625 106.78710938 C-172.3541994 104.21992676 -171.46502789 101.88457859 -170.84765625 99.03710938 C-170.18765625 99.03710938 -169.52765625 99.03710938 -168.84765625 99.03710938 C-168.55890625 97.88210937 -168.27015625 96.72710937 -167.97265625 95.53710938 C-165.05549844 86.62910554 -159.01039239 78.78121359 -153.84765625 71.03710938 C-153.18765625 71.03710938 -152.52765625 71.03710938 -151.84765625 71.03710938 C-151.59886719 70.48152344 -151.35007813 69.9259375 -151.09375 69.35351562 C-146.21135621 60.27746698 -137.54152384 51.83664706 -129.84765625 45.03710938 C-129.18765625 45.03710938 -128.52765625 45.03710938 -127.84765625 45.03710938 C-127.84765625 44.37710938 -127.84765625 43.71710938 -127.84765625 43.03710938 C-122.37146577 38.03710938 -122.37146577 38.03710938 -119.84765625 38.03710938 C-119.84765625 37.37710938 -119.84765625 36.71710938 -119.84765625 36.03710938 C-117.52393948 34.34740542 -115.2017105 32.77111299 -112.78515625 31.22460938 C-111.46016571 30.36512091 -110.13594376 29.50444642 -108.8125 28.64257812 C-108.15338623 28.21468994 -107.49427246 27.78680176 -106.81518555 27.34594727 C-104.8804438 26.05892027 -102.99445502 24.72126656 -101.11328125 23.35742188 C-98.70522113 21.6209024 -96.3210404 20.05779463 -93.66015625 18.72460938 C-93.02722656 18.39847656 -92.39429688 18.07234375 -91.7421875 17.73632812 C-89.84765625 17.03710938 -89.84765625 17.03710938 -85.84765625 17.03710938 C-85.84765625 16.37710938 -85.84765625 15.71710938 -85.84765625 15.03710938 C-75.28686313 11.04744337 -64.73938615 7.09846414 -53.84765625 4.09960938 C-52.76508545 3.80147339 -52.76508545 3.80147339 -51.66064453 3.49731445 C-34.91832904 -0.96664256 -17.18555848 -0.20669916 0 0 Z " fill="#FCFCFC" transform="translate(255.84765625,54.962890625)"/>
<path d="M0 0 C1.92960696 0.02271532 3.85932661 0.03868045 5.7890625 0.04296875 C17.74019999 0.09235362 28.30199418 2.61376066 39.66308594 6.25048828 C43.07496327 7.32866293 46.51154772 8.31857007 49.95019531 9.30761719 C52.7458148 10.23370488 55.21138358 11.54027308 57.796875 12.93164062 C62.12201777 14.96151692 66.73250769 16.32231616 71.2734375 17.79101562 C72.22347656 18.20222656 73.17351562 18.6134375 74.15234375 19.03710938 C74.48234375 20.02710937 74.81234375 21.01710938 75.15234375 22.03710938 C76.79636462 22.75781571 78.46849182 23.41512474 80.15234375 24.03710938 C82.00925733 25.14432078 83.84222718 26.29244055 85.65234375 27.47460938 C88.40741561 29.26617998 91.13033073 31.02474217 93.99609375 32.63476562 C94.70765625 33.09753906 95.41921875 33.5603125 96.15234375 34.03710938 C96.15234375 34.69710937 96.15234375 35.35710937 96.15234375 36.03710938 C96.68988281 36.26785156 97.22742188 36.49859375 97.78125 36.73632812 C100.8573202 38.42385923 103.43372478 40.58178152 106.08984375 42.84960938 C106.93494507 43.5695105 106.93494507 43.5695105 107.79711914 44.30395508 C116.76954519 52.05767322 125.40075473 60.2473053 132.15234375 70.03710938 C132.84328125 70.9575 133.53421875 71.87789063 134.24609375 72.82617188 C134.97828125 73.80328125 135.71046875 74.78039062 136.46484375 75.78710938 C137.14160156 76.68945312 137.81835938 77.59179688 138.515625 78.52148438 C140.02068188 80.83474603 140.60298027 82.38964495 141.15234375 85.03710938 C141.66796875 85.55273438 142.18359375 86.06835938 142.71484375 86.59960938 C143.18921875 87.07398438 143.66359375 87.54835938 144.15234375 88.03710938 C144.15234375 89.02710938 144.15234375 90.01710938 144.15234375 91.03710938 C144.81234375 91.03710938 145.47234375 91.03710938 146.15234375 91.03710938 C146.60673828 92.16246094 146.60673828 92.16246094 147.0703125 93.31054688 C149.16310683 98.42340441 151.29785202 103.4122298 153.90234375 108.28710938 C156.14002816 112.6221845 156.8825941 116.18161575 157.15234375 121.03710938 C157.81234375 121.03710938 158.47234375 121.03710938 159.15234375 121.03710938 C160.15005333 124.76155789 161.12188704 128.49232777 162.08984375 132.22460938 C162.36763672 133.26037109 162.64542969 134.29613281 162.93164062 135.36328125 C166.32328936 148.56210704 166.33890925 161.74428477 166.33764648 175.28369141 C166.33983436 177.90088144 166.35806672 180.51764955 166.37695312 183.13476562 C166.41876482 195.56787753 166.30910245 208.15283133 161.8671875 219.93164062 C161.06774476 222.28628344 160.63865911 224.5879817 160.21484375 227.03710938 C159.43115333 231.21893283 158.12423317 234.7105867 156.29296875 238.53710938 C154.42224602 242.63732359 152.94078885 246.88652396 151.3984375 251.11914062 C150.24318575 253.82438532 148.96542595 255.75038491 147.15234375 258.03710938 C146.44719529 260.18444864 146.44719529 260.18444864 146.15234375 262.03710938 C145.49234375 262.03710938 144.83234375 262.03710938 144.15234375 262.03710938 C143.87390625 262.76929688 143.59546875 263.50148438 143.30859375 264.25585938 C133.27724612 288.38531719 108.02965857 313.69323447 85.15234375 326.03710938 C84.16234375 326.36710937 83.17234375 326.69710938 82.15234375 327.03710938 C82.15234375 327.69710938 82.15234375 328.35710937 82.15234375 329.03710938 C80.45963542 329.72070312 78.76692708 330.40429688 77.07421875 331.08789062 C75.07783025 331.99380375 75.07783025 331.99380375 73.26953125 333.50195312 C70.78270818 335.30512926 68.41126509 336.22892635 65.52734375 337.28710938 C64.37621094 337.71378906 63.22507812 338.14046875 62.0390625 338.58007812 C61.41435059 338.81130371 60.78963867 339.0425293 60.14599609 339.28076172 C58.03673835 340.08096751 55.94807364 340.92302243 53.859375 341.77539062 C32.37744933 350.49422193 11.49683274 353.45378931 -11.59765625 353.34960938 C-12.48017059 353.34712189 -13.36268494 353.3446344 -14.27194214 353.34207153 C-39.79585863 353.23078001 -64.1879064 349.58361516 -86.84765625 337.03710938 C-89.16138909 335.97598362 -91.49141672 335.00102554 -93.84765625 334.03710938 C-93.84765625 333.37710937 -93.84765625 332.71710938 -93.84765625 332.03710938 C-95.02328125 331.72773437 -95.02328125 331.72773437 -96.22265625 331.41210938 C-104.74579808 328.17919351 -111.80107509 322.69909915 -118.84765625 317.03710938 C-120.4095561 315.84882012 -121.97205202 314.66131392 -123.53515625 313.47460938 C-127.28088626 310.55688284 -130.65578739 307.5563494 -133.84765625 304.03710938 C-133.84765625 303.37710937 -133.84765625 302.71710938 -133.84765625 302.03710938 C-134.43933594 301.77373779 -135.03101563 301.51036621 -135.640625 301.23901367 C-139.39855488 299.19252155 -141.96844197 295.96675036 -144.84765625 292.84960938 C-145.46382812 292.20185547 -146.08 291.55410156 -146.71484375 290.88671875 C-150.4838479 286.83867888 -153.24325213 282.90986546 -155.84765625 278.03710938 C-156.54890625 277.19148438 -157.25015625 276.34585937 -157.97265625 275.47460938 C-160.060961 272.7598132 -160.93246363 270.31654961 -161.84765625 267.03710938 C-162.50765625 267.03710938 -163.16765625 267.03710938 -163.84765625 267.03710938 C-164.09515625 266.33585937 -164.34265625 265.63460938 -164.59765625 264.91210938 C-165.78604869 261.94049753 -165.78604869 261.94049753 -167.78515625 259.16210938 C-169.92910519 255.91370188 -171.37660392 252.61527325 -172.84765625 249.03710938 C-173.12730225 248.36808594 -173.40694824 247.6990625 -173.69506836 247.00976562 C-177.78972861 237.13393613 -180.99233388 227.60540134 -182.84765625 217.03710938 C-183.11328022 215.6563973 -183.38162273 214.27620611 -183.65234375 212.89648438 C-185.51641194 203.30201576 -187.00655213 194.04293961 -186.98046875 184.26757812 C-186.98142548 183.46475906 -186.9823822 182.66194 -186.98336792 181.83479309 C-186.98404348 180.15328899 -186.98223311 178.47178218 -186.97802734 176.7902832 C-186.97263466 174.21429659 -186.97801153 171.63848152 -186.984375 169.0625 C-186.9837148 167.42252566 -186.98243483 165.78255142 -186.98046875 164.14257812 C-186.98249298 163.37382858 -186.98451721 162.60507904 -186.98660278 161.81303406 C-186.97253102 158.62240773 -186.86409218 156.08641717 -185.84765625 153.03710938 C-185.58015771 150.68486678 -185.33345519 148.33024083 -185.09765625 145.97460938 C-183.60185231 132.72212329 -180.03563438 118.61772981 -173.72265625 106.78710938 C-172.3541994 104.21992676 -171.46502789 101.88457859 -170.84765625 99.03710938 C-170.18765625 99.03710938 -169.52765625 99.03710938 -168.84765625 99.03710938 C-168.55890625 97.88210937 -168.27015625 96.72710937 -167.97265625 95.53710938 C-165.05549844 86.62910554 -159.01039239 78.78121359 -153.84765625 71.03710938 C-153.18765625 71.03710938 -152.52765625 71.03710938 -151.84765625 71.03710938 C-151.59886719 70.48152344 -151.35007813 69.9259375 -151.09375 69.35351562 C-146.21135621 60.27746698 -137.54152384 51.83664706 -129.84765625 45.03710938 C-129.18765625 45.03710938 -128.52765625 45.03710938 -127.84765625 45.03710938 C-127.84765625 44.37710938 -127.84765625 43.71710938 -127.84765625 43.03710938 C-122.37146577 38.03710938 -122.37146577 38.03710938 -119.84765625 38.03710938 C-119.84765625 37.37710938 -119.84765625 36.71710938 -119.84765625 36.03710938 C-117.52393948 34.34740542 -115.2017105 32.77111299 -112.78515625 31.22460938 C-111.46016571 30.36512091 -110.13594376 29.50444642 -108.8125 28.64257812 C-108.15338623 28.21468994 -107.49427246 27.78680176 -106.81518555 27.34594727 C-104.8804438 26.05892027 -102.99445502 24.72126656 -101.11328125 23.35742188 C-98.70522113 21.6209024 -96.3210404 20.05779463 -93.66015625 18.72460938 C-93.02722656 18.39847656 -92.39429688 18.07234375 -91.7421875 17.73632812 C-89.84765625 17.03710938 -89.84765625 17.03710938 -85.84765625 17.03710938 C-85.84765625 16.37710938 -85.84765625 15.71710938 -85.84765625 15.03710938 C-75.28686313 11.04744337 -64.73938615 7.09846414 -53.84765625 4.09960938 C-52.76508545 3.80147339 -52.76508545 3.80147339 -51.66064453 3.49731445 C-34.91832904 -0.96664256 -17.18555848 -0.20669916 0 0 Z M-79.578125 24.77539062 C-81.84765625 26.03710938 -81.84765625 26.03710938 -84.5234375 27.08007812 C-86.98732973 27.9203726 -86.98732973 27.9203726 -88.84765625 30.03710938 C-89.81703125 30.42898437 -90.78640625 30.82085937 -91.78515625 31.22460938 C-99.02361919 34.19890442 -105.98412325 38.88270401 -111.84765625 44.03710938 C-111.84765625 44.69710937 -111.84765625 45.35710937 -111.84765625 46.03710938 C-112.61078125 46.32585937 -113.37390625 46.61460938 -114.16015625 46.91210938 C-116.99794933 47.99979951 -116.99794933 47.99979951 -119.84765625 50.03710938 C-119.84765625 50.69710937 -119.84765625 51.35710937 -119.84765625 52.03710938 C-120.4096875 52.27429688 -120.97171875 52.51148438 -121.55078125 52.75585938 C-124.36659667 54.32658634 -126.32721041 56.25182402 -128.59765625 58.53710938 C-129.396875 59.33117187 -130.19609375 60.12523437 -131.01953125 60.94335938 C-133.06689234 62.824944 -133.06689234 62.824944 -132.84765625 65.03710938 C-133.83765625 65.36710937 -134.82765625 65.69710937 -135.84765625 66.03710938 C-138.88042824 69.09218964 -138.88042824 69.09218964 -139.84765625 73.03710938 C-140.50765625 73.03710938 -141.16765625 73.03710938 -141.84765625 73.03710938 C-143.69649355 75.41763845 -145.41189441 77.79423541 -147.09765625 80.28710938 C-147.59273682 81.0120459 -148.08781738 81.73698242 -148.59790039 82.48388672 C-152.08578833 87.68109726 -154.99797044 92.90701539 -157.6484375 98.58007812 C-158.84765625 101.03710938 -158.84765625 101.03710938 -160.97265625 103.97460938 C-163.45958153 108.03658734 -164.52881703 112.24430008 -165.84375 116.80273438 C-166.69730533 119.55271029 -167.66810532 122.01160972 -168.91015625 124.59960938 C-171.35973623 129.91979089 -172.68189237 135.30857072 -173.84765625 141.03710938 C-173.9859082 141.70516602 -174.12416016 142.37322266 -174.26660156 143.06152344 C-180.25749292 173.12416787 -176.7927684 202.99612883 -167.84765625 232.03710938 C-167.615625 232.88789063 -167.38359375 233.73867188 -167.14453125 234.61523438 C-165.28676863 241.04595114 -161.90810632 246.75538292 -158.6875 252.58398438 C-157.20027202 255.37529973 -155.93851324 258.07540438 -154.84765625 261.03710938 C-154.18765625 261.03710938 -153.52765625 261.03710938 -152.84765625 261.03710938 C-152.50734375 261.99617188 -152.50734375 261.99617188 -152.16015625 262.97460938 C-150.36199799 267.17031198 -148.10861604 271.07611493 -145.84765625 275.03710938 C-145.18765625 275.03710938 -144.52765625 275.03710938 -143.84765625 275.03710938 C-142.84765625 277.03710938 -141.84765625 279.03710937 -140.84765625 281.03710938 C-140.18765625 281.03710938 -139.52765625 281.03710938 -138.84765625 281.03710938 C-138.44933594 281.91109375 -138.44933594 281.91109375 -138.04296875 282.80273438 C-132.66350667 292.85846088 -122.00954256 301.08863862 -113.265625 308.05664062 C-111.32920175 309.64269327 -109.60426181 311.26504981 -107.84765625 313.03710938 C-104.17648087 315.54419949 -104.17648087 315.54419949 -99.84765625 316.03710938 C-99.84765625 316.69710938 -99.84765625 317.35710937 -99.84765625 318.03710938 C-80.03334895 330.26233027 -59.27976656 337.877854 -36.31347656 341.62329102 C-34.71051312 341.8923032 -33.1144531 342.20798659 -31.53149414 342.5769043 C-27.96471382 343.18850995 -24.43614503 343.21932478 -20.828125 343.24023438 C-20.05189285 343.24593445 -19.27566071 343.25163452 -18.47590637 343.25750732 C-16.83103789 343.26693427 -15.18615072 343.27348213 -13.54125977 343.27734375 C-11.08118288 343.28693002 -8.6219862 343.31792333 -6.16210938 343.34960938 C4.32379277 343.41978764 13.9186525 342.36718346 24.15234375 340.03710938 C24.99450439 339.85857422 25.83666504 339.68003906 26.7043457 339.49609375 C35.59652342 337.57525863 43.86593229 334.79723065 52.15234375 331.03710938 C53.25707031 330.57046875 54.36179687 330.10382813 55.5 329.62304688 C64.80798612 325.58129034 74.08646231 321.18428049 82.35546875 315.26367188 C84.21853892 313.99192398 86.11568706 313.00136719 88.15234375 312.03710938 C88.15234375 311.37710937 88.15234375 310.71710938 88.15234375 310.03710938 C88.70664062 309.78960937 89.2609375 309.54210937 89.83203125 309.28710938 C98.53545882 304.59839418 106.67926422 296.46500324 113.15234375 289.03710938 C113.15234375 288.37710937 113.15234375 287.71710938 113.15234375 287.03710938 C113.81234375 287.03710938 114.47234375 287.03710938 115.15234375 287.03710938 C116.51602852 285.67386608 116.51602852 285.67386608 117.875 283.84570312 C118.40915527 283.15581299 118.94331055 282.46592285 119.49365234 281.75512695 C120.06164551 281.00255615 120.62963867 280.24998535 121.21484375 279.47460938 C121.79830566 278.70463623 122.38176758 277.93466309 122.98291016 277.14135742 C128.26337897 270.06756295 132.9036383 262.7682207 137.15234375 255.03710938 C137.7659375 253.93367187 138.37953125 252.83023438 139.01171875 251.69335938 C145.98036444 238.49610117 151.35226076 223.70796674 154.15234375 209.03710938 C154.35601562 207.99554688 154.5596875 206.95398438 154.76953125 205.88085938 C159.62465481 175.28693011 156.36103525 143.53022264 144.87841797 114.85644531 C144.21585188 113.19624273 143.5754731 111.52722928 142.9375 109.85742188 C138.93889638 99.70608474 133.57018385 89.8699787 127.15234375 81.03710938 C126.49234375 81.03710938 125.83234375 81.03710938 125.15234375 81.03710938 C124.90871094 80.32425781 124.66507812 79.61140625 124.4140625 78.87695312 C121.15573074 71.54318473 114.90760786 65.29337306 108.7109375 60.29882812 C105.48213702 57.68503726 102.71569911 54.78219227 100.21484375 51.47460938 C97.81921525 48.64341206 95.2781851 47.01468248 92.15234375 45.03710938 C91.30671875 44.33585937 90.46109375 43.63460937 89.58984375 42.91210938 C87.16894412 41.04987889 85.02680927 40.02264041 82.15234375 39.03710938 C82.15234375 38.37710938 82.15234375 37.71710938 82.15234375 37.03710938 C80.54359375 36.13992187 80.54359375 36.13992187 78.90234375 35.22460938 C76.75259294 34.0091567 74.90081065 32.83588289 72.96484375 31.28710938 C70.97049179 29.65862074 70.97049179 29.65862074 67.15234375 30.03710938 C67.15234375 29.37710938 67.15234375 28.71710938 67.15234375 28.03710938 C66.53488281 27.79476562 65.91742188 27.55242187 65.28125 27.30273438 C61.09875867 25.64756277 56.96651101 23.96586672 52.90234375 22.03710938 C48.0438052 19.84431764 43.00945715 18.46366776 37.875 17.06445312 C35.86614385 16.51006785 33.85967792 15.94339231 31.875 15.30786133 C-2.10927134 4.48276857 -48.19706087 7.18078478 -79.578125 24.77539062 Z " fill="#0C0C0C" transform="translate(255.84765625,54.962890625)"/>
<path d="M0 0 C2.12601517 0.65991749 4.25846944 1.2954923 6.3918457 1.93115234 C12.58198996 3.78496972 18.32035736 5.88176483 24 9 C24.99 9.33 25.98 9.66 27 10 C27 10.66 27 11.32 27 12 C27.71542969 12.10441406 28.43085938 12.20882812 29.16796875 12.31640625 C32.31163677 13.07522267 34.55215773 14.26493706 37.3125 15.9375 C38.63701172 16.72447266 38.63701172 16.72447266 39.98828125 17.52734375 C40.98408203 18.25630859 40.98408203 18.25630859 42 19 C42 19.66 42 20.32 42 21 C42.7321875 21.26167969 43.464375 21.52335937 44.21875 21.79296875 C50.7827344 24.64166423 56.06664134 29.9296036 61 35 C61.845625 35.66 62.69125 36.32 63.5625 37 C66.13620736 39.11175989 67.92559097 41.40698871 70 44 C70.76828125 44.598125 71.5365625 45.19625 72.328125 45.8125 C75.1922487 48.1573966 77.40695101 50.6380207 79.75 53.5 C80.52859375 54.4384375 81.3071875 55.376875 82.109375 56.34375 C83.8559356 58.79759546 84.30921978 60.18571023 85 63 C85.99 63.33 86.98 63.66 88 64 C89.42930019 66.31396784 90.72675696 68.60426109 92 71 C92.66 72.12019531 93.32 73.24039063 94 74.39453125 C97.92647044 81.10480787 101.35830065 87.67705402 104 95 C104.56063456 96.46165438 105.12333672 97.9225165 105.6875 99.3828125 C109.16555256 108.46744191 112.31464024 117.38632812 114 127 C114.30550781 128.59714844 114.30550781 128.59714844 114.6171875 130.2265625 C121.50149745 173.51284016 111.84318337 217.32399074 86.953125 253.34375 C84.29252879 256.96216084 81.52061875 260.47598243 78.6640625 263.94140625 C76.86695118 266.10025359 76.86695118 266.10025359 75 269 C74.34 269 73.68 269 73 269 C72.773125 269.55171875 72.54625 270.1034375 72.3125 270.671875 C67.6725586 278.90224725 57.69640783 286.74354925 50 292 C49.34 292 48.68 292 48 292 C47.67 292.99 47.34 293.98 47 295 C45.0201901 296.0394002 43.01418 297.0288775 41 298 C39.69808362 298.88087109 38.40743223 299.77849631 37.125 300.6875 C25.94915777 308.22556808 13.82052631 313.06917825 1 317 C-0.48075016 317.5163142 -1.96016956 318.03648083 -3.4375 318.5625 C-7.59310551 319.94506837 -11.82054153 321.04348773 -16.0625 322.125 C-16.7237085 322.29588135 -17.38491699 322.4667627 -18.06616211 322.64282227 C-18.71593018 322.80451904 -19.36569824 322.96621582 -20.03515625 323.1328125 C-20.89185913 323.34768311 -20.89185913 323.34768311 -21.76586914 323.56689453 C-27.86107307 324.7485022 -33.90277816 325.17104844 -40.1015625 325.23828125 C-40.85229538 325.24802979 -41.60302826 325.25777832 -42.37651062 325.26782227 C-58.94793763 325.43875313 -74.86903078 325.28445865 -91 321 C-91.70737305 320.81808105 -92.41474609 320.63616211 -93.14355469 320.44873047 C-109.70068904 316.07286053 -125.43300149 308.93505944 -140 300 C-140 299.34 -140 298.68 -140 298 C-140.53625 297.9175 -141.0725 297.835 -141.625 297.75 C-147.9928007 295.73911557 -152.66918632 290.70839517 -157.484375 286.296875 C-159.66747381 284.30361087 -161.88202792 282.36257053 -164.125 280.4375 C-169.47335618 275.77260516 -175.01691704 270.91947407 -179 265 C-179 264.34 -179 263.68 -179 263 C-179.66 263 -180.32 263 -181 263 C-184 259.53846154 -184 259.53846154 -184 257 C-184.66 257 -185.32 257 -186 257 C-187.7265625 254.4453125 -187.7265625 254.4453125 -189.625 251.125 C-190.25664062 250.03445313 -190.88828125 248.94390625 -191.5390625 247.8203125 C-193 245 -193 245 -193 243 C-193.66 243 -194.32 243 -195 243 C-195.5259375 241.6696875 -195.5259375 241.6696875 -196.0625 240.3125 C-198.10049461 235.505173 -200.71291769 231.01620251 -203.28125 226.4765625 C-221.03259396 190.57043494 -221.80104716 143.6526894 -209.23046875 106.2890625 C-207.90251834 102.73942999 -206.45902918 99.28933375 -204.82421875 95.87109375 C-203.8402553 93.78032517 -203.8402553 93.78032517 -203.125 90.5 C-201.82847078 86.46635352 -199.8534292 83.62745437 -197.4375 80.18359375 C-195.82663925 77.88329302 -195.82663925 77.88329302 -194.5625 74.5625 C-192.74245022 70.41278651 -190.35955231 67.03891195 -187.7109375 63.37890625 C-186.29586668 61.41137628 -184.97674159 59.42518494 -183.6875 57.375 C-183.130625 56.59125 -182.57375 55.8075 -182 55 C-181.34 55 -180.68 55 -180 55 C-179.731875 54.4225 -179.46375 53.845 -179.1875 53.25 C-177.97070811 50.94449957 -176.69666121 48.97943808 -175 47 C-174.34 47 -173.68 47 -173 47 C-172.7628125 46.43796875 -172.525625 45.8759375 -172.28125 45.296875 C-170.71052303 42.48105958 -168.78528536 40.52044584 -166.5 38.25 C-165.7059375 37.45078125 -164.911875 36.6515625 -164.09375 35.828125 C-162 34 -162 34 -160 34 C-160 33.34 -160 32.68 -160 32 C-154.58823529 28 -154.58823529 28 -152 28 C-151.80664062 27.4328125 -151.61328125 26.865625 -151.4140625 26.28125 C-149.4119276 23.05128652 -146.54454481 21.44404798 -143.375 19.5 C-142.74561523 19.10417725 -142.11623047 18.70835449 -141.46777344 18.30053711 C-137.0975316 15.58403707 -132.63793503 13.22977646 -128 11 C-127.34 10.34 -126.68 9.68 -126 9 C-124.56384329 8.34486079 -123.10045601 7.74855528 -121.625 7.1875 C-118.82343123 6.10997355 -116.0489439 5.02170555 -113.3046875 3.8046875 C-78.42090222 -11.64523411 -35.81444215 -12.64697488 0 0 Z M-83 5 C-84.41229531 5.33012113 -85.82507474 5.65817662 -87.23828125 5.984375 C-93.99692521 7.57604564 -100.56744801 9.35130212 -107 12 C-107.99 12.33 -108.98 12.66 -110 13 C-110 13.66 -110 14.32 -110 15 C-110.99902344 15.08378906 -111.99804688 15.16757813 -113.02734375 15.25390625 C-117.42569384 15.89107622 -120.76771616 17.70530187 -124.5625 19.9375 C-125.25649902 20.33864014 -125.95049805 20.73978027 -126.66552734 21.15307617 C-147.82490506 33.6033138 -167.66792907 50.21310518 -181 71 C-181.75757251 72.126039 -182.51680107 73.25096496 -183.27734375 74.375 C-187.70730389 80.99342696 -191.36094052 87.45627338 -194 95 C-194.68029902 96.71121368 -195.36787892 98.41954974 -196.0625 100.125 C-196.70844508 101.74995558 -197.35428582 103.37495265 -198 105 C-198.4021875 105.98226562 -198.4021875 105.98226562 -198.8125 106.984375 C-201.13853263 112.84791558 -202.64555176 118.84594287 -204 125 C-204.28230469 126.20398438 -204.56460938 127.40796875 -204.85546875 128.6484375 C-209.78417751 151.78157055 -208.17779326 176.33732599 -202 199 C-201.8242041 199.680625 -201.6484082 200.36125 -201.46728516 201.0625 C-199.53246217 208.50989203 -196.64161543 215.31628638 -193.26953125 222.22265625 C-192.21983866 224.51906064 -191.49021495 226.53711285 -191 229 C-190.34 229 -189.68 229 -189 229 C-188.73574219 229.87011719 -188.47148437 230.74023438 -188.19921875 231.63671875 C-184.96249382 240.71430886 -179.13596784 248.65999319 -173 256 C-172.34789551 256.79325684 -172.34789551 256.79325684 -171.68261719 257.60253906 C-165.2873059 265.3679645 -158.76665835 272.55692008 -151 279 C-150.17757812 279.68578125 -149.35515625 280.3715625 -148.5078125 281.078125 C-140.50079657 287.61344641 -132.41803191 293.68132576 -123 298 C-122.11441406 298.43828125 -121.22882813 298.8765625 -120.31640625 299.328125 C-113.6181002 302.5706171 -106.82269273 305.26488798 -99.8125 307.75 C-98.99362305 308.04366455 -98.17474609 308.3373291 -97.33105469 308.63989258 C-91.61483253 310.62109623 -85.94639759 311.92476876 -80 313 C-79.1440625 313.18296631 -78.288125 313.36593262 -77.40625 313.55444336 C-70.01779594 315.07595256 -62.84314994 315.3474697 -55.3125 315.3125 C-54.05026611 315.30758545 -52.78803223 315.3026709 -51.48754883 315.29760742 C-33.76952682 315.08054301 -16.63193322 313.32173001 0 307 C0.79825195 306.6994873 1.59650391 306.39897461 2.41894531 306.08935547 C7.63519859 304.11458834 12.82433472 302.07865261 18 300 C18 299.34 18 298.68 18 298 C19.32 298 20.64 298 22 298 C22 297.34 22 296.68 22 296 C23.65 295.67 25.3 295.34 27 295 C27 294.34 27 293.68 27 293 C27.99 292.9071875 27.99 292.9071875 29 292.8125 C33.1216675 291.69621505 36.65750502 289.66238434 40 287 C40 286.34 40 285.68 40 285 C40.54914063 284.75894531 41.09828125 284.51789063 41.6640625 284.26953125 C44.53852823 282.70732161 46.86205266 280.78162278 49.375 278.6875 C50.82712891 277.47900391 50.82712891 277.47900391 52.30859375 276.24609375 C53.19675781 275.50488281 54.08492188 274.76367188 55 274 C55.63035156 273.49597656 56.26070313 272.99195313 56.91015625 272.47265625 C60.08444322 269.93160299 62.49873655 267.19126715 65 264 C65.99 263.34 66.98 262.68 68 262 C69.02542083 260.34885194 70.02295278 258.68022514 71 257 C72.22717782 255.46069216 73.47850422 253.94040802 74.75 252.4375 C82.37661049 243.56288565 82.37661049 243.56288565 86 233 C86.66 233 87.32 233 88 233 C88.33 231.02 88.66 229.04 89 227 C89.66 227 90.32 227 91 227 C96.61277459 213.90816844 101.15215214 200.97445152 104 187 C104.18763916 186.12883545 104.37527832 185.2576709 104.56860352 184.36010742 C106.1713647 176.09699882 106.27476988 168.00498402 106.20581055 159.62329102 C106.18722702 157.27805007 106.18530371 154.93319847 106.18554688 152.58789062 C106.18064197 151.09635072 106.1748182 149.60481349 106.16796875 148.11328125 C106.16629951 147.06192741 106.16629951 147.06192741 106.16459656 145.98933411 C106.41078663 142.7128596 106.41078663 142.7128596 105 140 C104.74125856 137.85522588 104.48677671 135.70986022 104.25268555 133.56225586 C102.26980261 116.26309978 96.37451462 100.22432141 88 85 C87.484375 84.00355469 86.96875 83.00710937 86.4375 81.98046875 C83.98428362 77.30095851 81.78822141 73.70403871 78 70 C77.06294974 68.31977194 76.1269905 66.63886502 75.20703125 64.94921875 C72.94404123 61.2947462 70.11778388 57.9565192 67 55 C66.34 55 65.68 55 65 55 C64.773125 54.443125 64.54625 53.88625 64.3125 53.3125 C62.61856764 50.32795251 60.48385302 48.37345955 58 46 C57.54109375 45.49726562 57.0821875 44.99453125 56.609375 44.4765625 C52.74786491 40.32251377 48.4639916 36.98730845 43.875 33.6875 C43.27695557 33.25477783 42.67891113 32.82205566 42.06274414 32.3762207 C38.82715835 30.09500017 35.75142706 28.28114773 32 27 C32 26.34 32 25.68 32 25 C28.19572508 22.7986134 28.19572508 22.7986134 24 22 C24 21.34 24 20.68 24 20 C23.35675781 19.78085938 22.71351563 19.56171875 22.05078125 19.3359375 C16.7741023 17.48420708 11.7226651 15.43716837 6.6875 13 C-5.65959794 7.23317896 -18.61942581 4.92728214 -32 3 C-33.22976563 2.81308594 -34.45953125 2.62617187 -35.7265625 2.43359375 C-51.33988937 0.55147607 -67.76812459 1.14713548 -83 5 Z " fill="#F4F4F4" transform="translate(296,73)"/>
<path d="M0 0 C4.58652902 2.05342371 9.21494875 3.87485903 13.93505859 5.60083008 C13.93505859 6.26083008 13.93505859 6.92083008 13.93505859 7.60083008 C14.88380859 7.91020508 15.83255859 8.21958008 16.81005859 8.53833008 C19.93505859 9.60083008 19.93505859 9.60083008 21.93505859 10.60083008 C21.93505859 11.26083008 21.93505859 11.92083008 21.93505859 12.60083008 C22.59892578 12.81352539 23.26279297 13.0262207 23.94677734 13.24536133 C27.97619589 15.07308451 31.24625567 17.6066987 34.74755859 20.28833008 C35.81441895 21.09862671 35.81441895 21.09862671 36.90283203 21.92529297 C50.77337928 32.53171442 50.77337928 32.53171442 54.93505859 38.60083008 C54.93505859 39.26083008 54.93505859 39.92083008 54.93505859 40.60083008 C55.50869141 40.82899414 56.08232422 41.0571582 56.67333984 41.29223633 C59.53890379 42.9502051 61.08634653 44.93671578 63.12255859 47.53833008 C63.81736328 48.41360352 64.51216797 49.28887695 65.22802734 50.19067383 C66.93505859 52.60083008 66.93505859 52.60083008 67.93505859 55.60083008 C68.55767578 56.2221582 69.18029297 56.84348633 69.82177734 57.48364258 C73.53736851 61.20610175 75.53899514 65.96347281 77.93505859 70.60083008 C78.77423828 72.14963867 78.77423828 72.14963867 79.63037109 73.72973633 C88.08690599 89.7895683 92.82483207 105.83506465 94.65722656 123.87695312 C94.7667796 125.62774709 94.7667796 125.62774709 95.93505859 126.60083008 C96.2543069 131.86248246 96.23084402 137.14269195 96.24755859 142.41333008 C96.250177 143.18859039 96.25279541 143.96385071 96.25549316 144.76260376 C96.25970583 156.36354445 95.53635921 167.27031361 92.49511719 178.52368164 C91.93782771 180.59055996 91.44036553 182.66454217 90.95458984 184.74926758 C89.30882206 191.60635316 87.12010551 197.93184874 84.04052734 204.28051758 C82.75232218 206.98438282 81.78809357 209.73153061 80.93505859 212.60083008 C80.27505859 212.60083008 79.61505859 212.60083008 78.93505859 212.60083008 C78.60505859 214.58083008 78.27505859 216.56083008 77.93505859 218.60083008 C77.27505859 218.60083008 76.61505859 218.60083008 75.93505859 218.60083008 C75.62568359 219.80739258 75.62568359 219.80739258 75.31005859 221.03833008 C72.34806031 228.71259837 66.97113334 234.9596511 61.76708984 241.24145508 C59.87183245 243.5822713 59.87183245 243.5822713 58.34521484 246.27270508 C56.61867333 249.1231725 54.57729239 250.58769957 51.93505859 252.60083008 C50.26417076 254.26326486 48.59809023 255.93053629 46.93505859 257.60083008 C45.09193838 259.32107561 43.23760941 261.02938608 41.37255859 262.72583008 C40.44314453 263.5740332 39.51373047 264.42223633 38.55615234 265.29614258 C32.52319419 270.60083008 32.52319419 270.60083008 29.93505859 270.60083008 C29.93505859 271.26083008 29.93505859 271.92083008 29.93505859 272.60083008 C27.85302734 274.10864258 27.85302734 274.10864258 25.12255859 275.72583008 C23.78257812 276.53407227 23.78257812 276.53407227 22.41552734 277.35864258 C19.93505859 278.60083008 19.93505859 278.60083008 16.93505859 278.60083008 C16.93505859 279.26083008 16.93505859 279.92083008 16.93505859 280.60083008 C15.28505859 280.93083008 13.63505859 281.26083008 11.93505859 281.60083008 C11.93505859 282.26083008 11.93505859 282.92083008 11.93505859 283.60083008 C10.61505859 283.60083008 9.29505859 283.60083008 7.93505859 283.60083008 C7.93505859 284.26083008 7.93505859 284.92083008 7.93505859 285.60083008 C1.95953485 288.00072214 -4.03839576 290.33205583 -10.06494141 292.60083008 C-10.73686523 292.85622559 -11.40878906 293.11162109 -12.10107422 293.37475586 C-29.15487798 299.7200479 -47.19667079 300.84002004 -65.25244141 300.97583008 C-66.43281982 300.98976807 -67.61319824 301.00370605 -68.8293457 301.01806641 C-75.92382436 300.97958822 -82.34119277 300.10951978 -89.21240234 298.33544922 C-91.84250314 297.65811498 -94.45311691 297.12948637 -97.12744141 296.66333008 C-122.39596433 291.66649998 -148.54129018 278.03312591 -166.27197266 259.42504883 C-167.95585441 257.71181838 -169.69322898 256.22740611 -171.56494141 254.72583008 C-176.08930481 250.94689954 -179.4895011 246.2525885 -183.06494141 241.60083008 C-183.72107422 240.79387695 -184.37720703 239.98692383 -185.05322266 239.15551758 C-199.06494141 221.36199513 -199.06494141 221.36199513 -199.06494141 214.60083008 C-199.72494141 214.60083008 -200.38494141 214.60083008 -201.06494141 214.60083008 C-201.30728516 213.91118164 -201.54962891 213.2215332 -201.79931641 212.51098633 C-203.37479979 208.09357332 -204.94434414 203.75532938 -207.00244141 199.53833008 C-210.00154405 192.92613526 -211.72419059 185.85890068 -213.49658203 178.83959961 C-213.99194824 176.88835041 -214.51801698 174.94494674 -215.04931641 173.00317383 C-221.83562259 144.09735077 -217.64993724 109.2514095 -205.06494141 82.60083008 C-204.41751142 81.10151853 -203.77169796 79.60150799 -203.12744141 78.10083008 C-188.31296365 44.91180626 -159.17981258 15.98403567 -125.96728516 1.19458008 C-124.06494141 0.60083008 -124.06494141 0.60083008 -120.06494141 0.60083008 C-120.06494141 -0.05916992 -120.06494141 -0.71916992 -120.06494141 -1.39916992 C-119.43587891 -1.58092773 -118.80681641 -1.76268555 -118.15869141 -1.94995117 C-117.30275391 -2.20131836 -116.44681641 -2.45268555 -115.56494141 -2.71166992 C-114.31197266 -3.07711914 -114.31197266 -3.07711914 -113.03369141 -3.44995117 C-110.73314331 -4.18552116 -108.53174715 -4.99054418 -106.28759766 -5.87182617 C-101.93907025 -7.52241833 -97.54583544 -8.56077 -93.00244141 -9.52416992 C-92.23867187 -9.69303711 -91.47490234 -9.8619043 -90.68798828 -10.03588867 C-60.88451287 -16.51157965 -27.72215367 -12.44826773 0 0 Z M-92.06494141 1.60083008 C-93.54345514 1.9577127 -95.02252571 2.31230643 -96.50244141 2.66333008 C-97.67806641 2.97270508 -98.85369141 3.28208008 -100.06494141 3.60083008 C-101.32306641 3.88958008 -102.58119141 4.17833008 -103.87744141 4.47583008 C-110.75779511 6.20613685 -117.43255959 8.21226592 -123.06494141 12.60083008 C-124.74299963 13.34304814 -126.42265587 14.08262823 -128.11962891 14.78051758 C-130.25845493 15.68243216 -132.35048424 16.65230242 -134.43994141 17.66333008 C-135.10767578 17.98430664 -135.77541016 18.3052832 -136.46337891 18.63598633 C-138.24480398 19.5144192 -138.24480398 19.5144192 -139.06494141 21.60083008 C-139.80615234 21.89086914 -140.54736328 22.1809082 -141.31103516 22.47973633 C-146.64226149 24.65003698 -150.74672198 28.87323163 -155.06494141 32.60083008 C-156.05365234 33.45290039 -157.04236328 34.3049707 -158.06103516 35.18286133 C-167.71655788 43.67972133 -176.85530019 53.25217543 -183.06494141 64.60083008 C-183.06494141 65.26083008 -183.06494141 65.92083008 -183.06494141 66.60083008 C-183.72494141 66.60083008 -184.38494141 66.60083008 -185.06494141 66.60083008 C-186.07263661 68.36729578 -187.07085855 70.13916831 -188.06494141 71.91333008 C-188.90025391 73.3925293 -188.90025391 73.3925293 -189.75244141 74.90161133 C-191.28358893 77.55025479 -191.28358893 77.55025479 -191.06494141 80.60083008 C-191.72494141 80.60083008 -192.38494141 80.60083008 -193.06494141 80.60083008 C-193.33757812 81.54442383 -193.33757812 81.54442383 -193.61572266 82.50708008 C-194.80583199 86.55955495 -196.00721567 90.58666206 -197.50244141 94.53833008 C-197.74865234 95.1905957 -197.99486328 95.84286133 -198.24853516 96.51489258 C-198.82101349 97.97758842 -199.41975308 99.43014894 -200.03759766 100.87426758 C-210.39691156 126.47713463 -208.19530229 158.52317492 -201.06494141 184.60083008 C-200.79327148 185.63771973 -200.79327148 185.63771973 -200.51611328 186.69555664 C-197.79189633 196.98882344 -193.46346764 206.40018683 -188.17822266 215.61254883 C-187.24766227 217.27449703 -186.42344074 218.99539675 -185.62744141 220.72583008 C-183.9769604 223.76271512 -182.09537732 226.04538456 -179.80712891 228.61254883 C-177.79682409 230.90682047 -175.90009984 233.27514484 -174.00244141 235.66333008 C-169.56472565 241.23156658 -165.17338883 246.62009384 -160.06494141 251.60083008 C-159.19869141 252.50833008 -158.33244141 253.41583008 -157.43994141 254.35083008 C-155.19961029 256.79087682 -155.19961029 256.79087682 -152.06494141 257.60083008 C-150.73160807 258.93416341 -149.39827474 260.26749674 -148.06494141 261.60083008 C-147.40494141 261.60083008 -146.74494141 261.60083008 -146.06494141 261.60083008 C-146.06494141 262.26083008 -146.06494141 262.92083008 -146.06494141 263.60083008 C-144.08494141 264.26083008 -142.10494141 264.92083008 -140.06494141 265.60083008 C-140.06494141 266.26083008 -140.06494141 266.92083008 -140.06494141 267.60083008 C-138.41887424 268.9708515 -138.41887424 268.9708515 -136.31494141 270.22583008 C-135.61884766 270.6718457 -134.92275391 271.11786133 -134.20556641 271.57739258 C-131.85893125 272.8883894 -131.85893125 272.8883894 -128.06494141 272.60083008 C-128.06494141 273.26083008 -128.06494141 273.92083008 -128.06494141 274.60083008 C-125.80444346 275.52459126 -123.53910645 276.43366708 -121.26806641 277.33129883 C-119.04272853 278.2132925 -116.82438284 279.11305166 -114.61181641 280.02661133 C-110.47837595 281.70006017 -106.29513861 283.19106577 -102.06494141 284.60083008 C-101.31889648 284.85074707 -100.57285156 285.10066406 -99.80419922 285.3581543 C-86.88146989 289.46401097 -74.13566607 290.07765286 -60.68994141 290.10083008 C-59.88691589 290.10532166 -59.08389038 290.10981323 -58.25653076 290.11444092 C-43.89441661 290.14709293 -30.26499442 288.54345974 -16.68994141 283.60083008 C-15.1839449 283.07202049 -13.67743684 282.54466538 -12.17041016 282.01879883 C-11.46835449 281.77178223 -10.76629883 281.52476562 -10.04296875 281.27026367 C-6.64929002 280.12172417 -3.19069229 279.2119162 0.28271484 278.33911133 C0.82798828 278.09547852 1.37326172 277.8518457 1.93505859 277.60083008 C2.26505859 276.61083008 2.59505859 275.62083008 2.93505859 274.60083008 C3.65822266 274.49641602 4.38138672 274.39200195 5.12646484 274.28442383 C16.08033299 271.6183224 29.46513058 260.00805177 37.93505859 252.60083008 C37.93505859 251.94083008 37.93505859 251.28083008 37.93505859 250.60083008 C38.53318359 250.34043945 39.13130859 250.08004883 39.74755859 249.81176758 C42.08153706 248.51974378 43.27479054 247.29214194 44.93505859 245.22583008 C46.66691559 243.11155796 48.34513284 241.20154726 50.31005859 239.28833008 C52.16627249 237.75117469 52.16627249 237.75117469 51.93505859 235.60083008 C52.59505859 235.60083008 53.25505859 235.60083008 53.93505859 235.60083008 C55.45951528 233.60915288 56.86474202 231.62517757 58.24755859 229.53833008 C59.05939743 228.33215564 59.87189153 227.12642197 60.68505859 225.92114258 C61.26900391 225.05150879 61.26900391 225.05150879 61.86474609 224.16430664 C63.09719427 222.36398772 64.41350914 220.63925655 65.74755859 218.91333008 C68.10956438 215.33657845 69.57708891 211.84564914 71.04052734 207.83520508 C71.93505859 205.60083008 71.93505859 205.60083008 73.93505859 202.60083008 C74.42116984 201.22117331 74.85242715 199.8217434 75.24755859 198.41333008 C76.34416278 194.57799869 77.52716982 190.78567647 78.77880859 186.99804688 C87.73794756 159.39070011 89.5733331 123.78821628 77.93505859 96.60083008 C77.26440125 94.60216473 76.59789996 92.60210112 75.93505859 90.60083008 C71.29125935 78.18258042 64.73189516 67.2787148 56.93505859 56.60083008 C56.40783203 55.86735352 55.88060547 55.13387695 55.33740234 54.37817383 C44.88884789 40.08155839 30.11562268 28.82497188 15.37255859 19.28833008 C14.56874756 18.75989502 13.76493652 18.23145996 12.93676758 17.68701172 C7.97232087 14.53402039 3.72183389 12.6945505 -2.06494141 11.60083008 C-2.06494141 10.94083008 -2.06494141 10.28083008 -2.06494141 9.60083008 C-9.92172658 6.0512488 -17.82574612 4.12715875 -26.25244141 2.41333008 C-27.48414063 2.15358398 -28.71583984 1.89383789 -29.98486328 1.6262207 C-40.65145851 -0.59910132 -50.66799349 -1.6237504 -61.56494141 -1.64916992 C-62.57189056 -1.65167755 -62.57189056 -1.65167755 -63.59918213 -1.65423584 C-73.44044186 -1.65570772 -82.54715368 -1.10900289 -92.06494141 1.60083008 Z " fill="#0F0F0F" transform="translate(306.06494140625,87.399169921875)"/>
<path d="M0 0 C0.95777344 0.00902344 1.91554688 0.01804687 2.90234375 0.02734375 C3.61519531 0.03894531 4.32804688 0.05054688 5.0625 0.0625 C5.0625 2.0425 5.0625 4.0225 5.0625 6.0625 C4.26585937 6.27003906 3.46921875 6.47757812 2.6484375 6.69140625 C-4.41186632 8.74421965 -9.1343516 10.61569967 -12.9375 17.0625 C-16.23944037 23.09418167 -18.49411245 29.25415651 -20.56054688 35.79492188 C-22.04895781 40.25204345 -23.86726326 43.75820544 -26.75610352 47.47387695 C-27.99891476 49.14508438 -28.95784345 50.85135075 -29.9375 52.6875 C-35.08527066 61.374363 -43.49785549 66.91595183 -52.9375 70.0625 C-73.66412973 71.44882063 -96.61846817 67.24102238 -113.9375 55.0625 C-113.9375 54.4025 -113.9375 53.7425 -113.9375 53.0625 C-114.88625 52.753125 -115.835 52.44375 -116.8125 52.125 C-119.9375 51.0625 -119.9375 51.0625 -121.9375 50.0625 C-121.9375 49.4025 -121.9375 48.7425 -121.9375 48.0625 C-122.5975 47.876875 -123.2575 47.69125 -123.9375 47.5 C-127.55036861 45.76883379 -130.06944704 43.47575071 -133.01953125 40.796875 C-134.50512482 39.45348693 -136.05388004 38.1797809 -137.625 36.9375 C-145.70610252 30.38525471 -152.1874135 21.68762975 -157.9375 13.0625 C-157.9375 12.4025 -157.9375 11.7425 -157.9375 11.0625 C-158.5975 11.0625 -159.2575 11.0625 -159.9375 11.0625 C-159.9375 9.4125 -159.9375 7.7625 -159.9375 6.0625 C-157.25 5.73046875 -157.25 5.73046875 -153.9375 6.0625 C-151.375 8.36328125 -151.375 8.36328125 -148.9375 11.375 C-145.55832774 15.51773523 -142.88301854 17.95634167 -137.9375 20.0625 C-137.9375 20.7225 -137.9375 21.3825 -137.9375 22.0625 C-137.22207031 22.3409375 -136.50664062 22.619375 -135.76953125 22.90625 C-132.09204031 24.40768078 -128.53111623 26.12862245 -124.94921875 27.84375 C-117.93583292 30.68185166 -111.66973185 31.38199441 -104.1875 31.3125 C-102.96160156 31.32410156 -102.96160156 31.32410156 -101.7109375 31.3359375 C-89.76255116 31.29871511 -79.57005768 28.5088895 -68.5625 24 C-66.30679568 23.08722067 -64.04904376 22.17948164 -61.7890625 21.27734375 C-60.80760254 20.87636475 -59.82614258 20.47538574 -58.81494141 20.06225586 C-55.85696831 19.03451958 -53.03485998 18.48763347 -49.9375 18.0625 C-49.9375 17.4025 -49.9375 16.7425 -49.9375 16.0625 C-48.02467875 15.22037744 -46.10707527 14.38911136 -44.1875 13.5625 C-43.12015625 13.0984375 -42.0528125 12.634375 -40.953125 12.15625 C-37.9375 11.0625 -37.9375 11.0625 -33.9375 11.0625 C-33.9375 10.4025 -33.9375 9.7425 -33.9375 9.0625 C-30.58804414 7.73775217 -27.23220883 6.42996157 -23.875 5.125 C-22.93205078 4.75181641 -21.98910156 4.37863281 -21.01757812 3.99414062 C-13.93095231 1.25332019 -7.63632806 -0.09427566 0 0 Z " fill="#070707" transform="translate(313.9375,276.9375)"/>
<path d="M0 0 C1.96484375 0.20727539 1.96484375 0.20727539 4 1 C4.94140625 2.60717773 4.94140625 2.60717773 5.5625 4.68359375 C5.7999292 5.44148193 6.0373584 6.19937012 6.28198242 6.98022461 C6.63740112 8.19657593 6.63740112 8.19657593 7 9.4375 C7.51459214 11.09447695 8.03150344 12.75073551 8.55078125 14.40625 C8.92130615 15.60314453 8.92130615 15.60314453 9.29931641 16.82421875 C10.13538896 19.4204134 11.12366388 21.92668371 12.1875 24.4375 C13.95021041 28.65489392 15.12120077 32.91901933 16.19140625 37.359375 C16.95090511 40.10769451 16.95090511 40.10769451 18.46875 42.90234375 C20.08729185 46.17658784 21.0144991 49.28291285 21.9375 52.8125 C23.03166246 56.79541712 24.11653982 60.54199641 25.9375 64.25 C28.47057418 69.51639138 29.79375382 75.15656031 31.24975586 80.79394531 C31.44835205 81.55030273 31.64694824 82.30666016 31.8515625 83.0859375 C32.02510254 83.7670459 32.19864258 84.4481543 32.37744141 85.14990234 C33.01118617 87.29884572 33.01118617 87.29884572 35 90 C35 91.32 35 92.64 35 94 C37.97 94 40.94 94 44 94 C44 95.32 44 96.64 44 98 C32.45 98 20.9 98 9 98 C9 96.68 9 95.36 9 94 C12.465 93.01 12.465 93.01 16 92 C15.37580102 89.6456184 14.75066077 87.29149318 14.125 84.9375 C13.95097656 84.28072266 13.77695313 83.62394531 13.59765625 82.94726562 C13.42363281 82.29306641 13.24960938 81.63886719 13.0703125 80.96484375 C12.91320801 80.3730835 12.75610352 79.78132324 12.59423828 79.17163086 C11.75567903 76.10713434 10.87283189 73.05491162 10 70 C0.1 70 -9.8 70 -20 70 C-20.66 73.63 -21.32 77.26 -22 81 C-22.33 81.99 -22.66 82.98 -23 84 C-23.66 84 -24.32 84 -25 84 C-25.144375 85.093125 -25.28875 86.18625 -25.4375 87.3125 C-26 91 -26 91 -27 94 C-24.36 94 -21.72 94 -19 94 C-18.67 94.99 -18.34 95.98 -18 97 C-24.93 97 -31.86 97 -39 97 C-39 96.01 -39 95.02 -39 94 C-36.36 94 -33.72 94 -31 94 C-30.82911865 93.27224365 -30.6582373 92.5444873 -30.48217773 91.79467773 C-28.69866876 84.40805201 -26.52796606 77.24722264 -24.0625 70.0625 C-21.86603491 63.58631943 -19.69098507 57.12009098 -17.75 50.5625 C-16.72987545 47.15911503 -15.6062572 44.00984694 -14.0625 40.8125 C-11.70280504 35.79011422 -10.42962228 30.51757125 -9.00512695 25.17529297 C-7.47329332 19.51108456 -5.7104041 13.96775388 -3.75 8.4375 C-3.4917041 7.7053125 -3.2334082 6.973125 -2.96728516 6.21875 C-1.13734562 1.13734562 -1.13734562 1.13734562 0 0 Z " fill="#0F0F0F" transform="translate(202,160)"/>
<path d="M0 0 C0 0.66 0 1.32 0 2 C0.721875 2.20625 1.44375 2.4125 2.1875 2.625 C5.8099294 4.39596549 8.19593402 6.41386884 10 10 C10.88175067 14.11264306 11.18749731 18.06114075 8.92578125 21.75390625 C6.23718655 24.33937677 3.49532729 25.35381444 -0.125 25.625 C-4 25 -4 25 -6.5 23.0625 C-8.51475815 18.94903544 -8.83967076 15.50063528 -8 11 C-6.25 8.4375 -6.25 8.4375 -4 7 C-2.68 7 -1.36 7 0 7 C0 6.34 0 5.68 0 5 C-13.98170579 1.01336481 -13.98170579 1.01336481 -27.46875 4.9296875 C-29.16620619 5.93500779 -29.16620619 5.93500779 -30 8 C-30.66 8 -31.32 8 -32 8 C-32.33 9.32 -32.66 10.64 -33 12 C-33.66 12 -34.32 12 -35 12 C-39.46207511 24.35651569 -41.1739496 36.43834326 -41.25 49.5 C-41.270625 50.38558594 -41.29125 51.27117187 -41.3125 52.18359375 C-41.3444102 57.61630586 -40.60440313 61.95725745 -38.70361328 67.04443359 C-37.41187247 70.63459455 -37.30000197 74.21997522 -37 78 C-36.34 78 -35.68 78 -35 78 C-33.23370728 80.1714475 -31.65499308 82.44781948 -30.046875 84.73828125 C-27.18027985 87.90575948 -24.34118284 89.7289977 -20.01953125 90.22924805 C-17.87909095 90.29402714 -15.76493167 90.26295871 -13.625 90.1875 C-12.88894531 90.17396484 -12.15289062 90.16042969 -11.39453125 90.14648438 C-9.59603257 90.11144869 -7.79791578 90.05765288 -6 90 C-6 89.34 -6 88.68 -6 88 C-4.42578125 86.921875 -4.42578125 86.921875 -2.3125 85.75 C3.81064797 82.06096562 7.03641874 77.55107436 10 71 C11.98 71.495 11.98 71.495 14 72 C13.48811648 76.47898081 11.95327372 78.64763524 9 82 C8.5771875 82.55945313 8.154375 83.11890625 7.71875 83.6953125 C3.13620921 89.57623984 -2.66471271 93.4229387 -10 95 C-36.22870173 96.36389249 -36.22870173 96.36389249 -46.125 87.97265625 C-58.1155262 75.35762348 -60.61491999 61.50014798 -60.47314453 44.76806641 C-60.06547248 30.81246052 -55.69494764 18.3874439 -46 8 C-45.34 8 -44.68 8 -44 8 C-43.67 7.01 -43.34 6.02 -43 5 C-31.37076016 -4.15666782 -13.39011547 -6.42725542 0 0 Z " fill="#090909" transform="translate(312,164)"/>
<path d="M0 0 C1.59859641 0.97541476 3.18805904 1.96690519 4.75 3 C3.75803642 8.93872933 -1.18519278 12.5251377 -5.875 15.875 C-10.67306961 18.14776982 -15.37566232 18.13564774 -20.625 18.125 C-21.89085937 18.12757813 -23.15671875 18.13015625 -24.4609375 18.1328125 C-28.15964792 18.00316698 -31.60437943 17.59347312 -35.25 17 C-35.5727506 12.37390802 -35.09450614 9.71973879 -32.25 6 C-31.59 6 -30.93 6 -30.25 6 C-30.01023438 5.22269531 -29.77046875 4.44539063 -29.5234375 3.64453125 C-28.00050253 0.48187183 -27.09000851 -0.04834617 -23.875 -1.3125 C-15.29790976 -4.3113963 -8.05876184 -4.3655937 0 0 Z " fill="#F32F04" transform="translate(272.25,322)"/>
<path d="M0 0 C0.66 0 1.32 0 2 0 C5.42857143 8.42857143 5.42857143 8.42857143 5 13 C5.66 13 6.32 13 7 13 C7.33773437 14.08539063 7.67546875 15.17078125 8.0234375 16.2890625 C8.47392751 17.73438461 8.92445007 19.17969657 9.375 20.625 C9.59671875 21.33785156 9.8184375 22.05070312 10.046875 22.78515625 C10.26601562 23.48769531 10.48515625 24.19023437 10.7109375 24.9140625 C11.03529785 25.95675293 11.03529785 25.95675293 11.36621094 27.02050781 C11.93054082 28.78306046 12.54398076 30.52971771 13.1640625 32.2734375 C14 35 14 35 14 39 C5.42 39 -3.16 39 -12 39 C-5.42105263 10.84210526 -5.42105263 10.84210526 0 0 Z " fill="#F2F2F2" transform="translate(196,187)"/>
<path d="M0 0 C0 0.66 0 1.32 0 2 C0.721875 2.20625 1.44375 2.4125 2.1875 2.625 C5.8099294 4.39596549 8.19593402 6.41386884 10 10 C10.88175067 14.11264306 11.18749731 18.06114075 8.92578125 21.75390625 C6.23718655 24.33937677 3.49532729 25.35381444 -0.125 25.625 C-4 25 -4 25 -6.5 23.0625 C-8.51475815 18.94903544 -8.83967076 15.50063528 -8 11 C-6.25 8.4375 -6.25 8.4375 -4 7 C-2.68 7 -1.36 7 0 7 C0 6.34 0 5.68 0 5 C-7.3728039 2.80384565 -13.8976547 1.69554926 -21.6015625 2.08984375 C-24 2 -24 2 -26 0 C-27.31747324 -0.69748583 -28.64914193 -1.36959957 -30 -2 C-19.83341516 -3.62665357 -9.47133345 -4.54624006 0 0 Z " fill="#111111" transform="translate(312,164)"/>
<path d="M0 0 C1.32 0 2.64 0 4 0 C3.67484655 2.9563952 3.45925414 4.55539178 1.28515625 6.66015625 C-10.57833861 14.14520837 -22.14085821 18.18592526 -36.203125 15.17578125 C-47.64007903 12.46913892 -47.64007903 12.46913892 -52 10 C-52 8.68 -52 7.36 -52 6 C-47.66329886 6.39424556 -44.03225009 6.91541518 -40 8.5625 C-31.5645193 11.53542115 -20.26381264 11.31321599 -11.96484375 8 C-9.05572705 6.51941576 -6.3211259 4.8320438 -3.62890625 2.98828125 C-2 2 -2 2 0 2 C0 1.34 0 0.68 0 0 Z " fill="#111111" transform="translate(280,346)"/>
<path d="M0 0 C0.33 0.66 0.66 1.32 1 2 C1.66 2 2.32 2 3 2 C0.42867609 10.69651012 -2.28412724 19.347852 -5 28 C-3.68 28.33 -2.36 28.66 -1 29 C-3.31 28.67 -5.62 28.34 -8 28 C-8.33 29.32 -8.66 30.64 -9 32 C-8.34 32 -7.68 32 -7 32 C-7.30975468 33.77131561 -7.62290425 35.54203778 -7.9375 37.3125 C-8.11152344 38.29863281 -8.28554687 39.28476563 -8.46484375 40.30078125 C-9 43 -9 43 -10 46 C-10.66 46 -11.32 46 -12 46 C-12.144375 47.093125 -12.28875 48.18625 -12.4375 49.3125 C-13 53 -13 53 -14 56 C-11.36 56 -8.72 56 -6 56 C-5.67 56.99 -5.34 57.98 -5 59 C-11.93 59 -18.86 59 -26 59 C-26 58.01 -26 57.02 -26 56 C-23.36 56 -20.72 56 -18 56 C-17.82911865 55.27224365 -17.6582373 54.5444873 -17.48217773 53.79467773 C-15.69866428 46.40803344 -13.52780573 39.24728857 -11.0625 32.0625 C-10.35034214 29.96135073 -9.63939347 27.85979121 -8.9296875 25.7578125 C-8.59420898 24.76426758 -8.25873047 23.77072266 -7.91308594 22.74707031 C-6.77625995 19.32686551 -5.72093339 15.89028909 -4.6875 12.4375 C-3.39222417 8.13142748 -1.89611629 4.07665002 0 0 Z " fill="#151515" transform="translate(189,198)"/>
<path d="M0 0 C-0.234375 1.8359375 -0.234375 1.8359375 -1 4 C-2.890625 5.4140625 -2.890625 5.4140625 -5.25 6.625 C-6.01828125 7.02976562 -6.7865625 7.43453125 -7.578125 7.8515625 C-8.77695312 8.42003906 -8.77695312 8.42003906 -10 9 C-10.74507813 9.37382812 -11.49015625 9.74765625 -12.2578125 10.1328125 C-16.07793247 11.34088463 -19.64238042 11.29651235 -23.625 11.25 C-24.4195459 11.24613281 -25.2140918 11.24226563 -26.03271484 11.23828125 C-32.16888759 11.14857477 -38.02998545 10.47277892 -44 9 C-44 8.67 -44 8.34 -44 8 C-43.05125 7.87625 -42.1025 7.7525 -41.125 7.625 C-37.91332809 7.28312823 -37.91332809 7.28312823 -36 5 C-33.71264648 4.74462891 -33.71264648 4.74462891 -30.87109375 4.7265625 C-29.83533203 4.7059375 -28.79957031 4.6853125 -27.73242188 4.6640625 C-25.56322688 4.6383459 -23.39393115 4.61992489 -21.22460938 4.609375 C-15.01226483 4.47140806 -10.34560955 3.78583356 -4.82446289 0.85302734 C-3 0 -3 0 0 0 Z " fill="#161415" transform="translate(276,336)"/>
<path d="M0 0 C2.875 -0.1875 2.875 -0.1875 6 0 C7.32 0 8.64 0 10 0 C10.99 0 11.98 0 13 0 C13 3.96 13 7.92 13 12 C11.68 12 10.36 12 9 12 C9 11.34 9 10.68 9 10 C8.01 10.66 7.02 11.32 6 12 C2.9375 12.25 2.9375 12.25 0 12 C-2 10 -2 10 -2.25 6.5625 C-2 3 -2 3 0 0 Z " fill="#E9E9E9" transform="translate(217,138)"/>
<path d="M0 0 C0 0.99 0 1.98 0 3 C-1.32064453 3.12955078 -1.32064453 3.12955078 -2.66796875 3.26171875 C-9.86050946 4.02184628 -9.86050946 4.02184628 -16.125 7.3125 C-17.37482947 9.10392224 -18.56367504 10.9394584 -19.6875 12.8125 C-20.120625 13.534375 -20.55375 14.25625 -21 15 C-21.66 15 -22.32 15 -23 15 C-23.46693504 10.33064963 -23.85149069 6.3897289 -20.8125 2.5625 C-14.74121815 -2.96911235 -7.36447539 -3.6822377 0 0 Z " fill="#272727" transform="translate(165,273)"/>
<path d="M0 0 C0 1.32 0 2.64 0 4 C-8.83916075 8.7595481 -19.05653351 9.69234908 -28.8046875 7.31640625 C-31 6.5 -31 6.5 -34 5 C-34 4.01 -34 3.02 -34 2 C-28.25 1.875 -28.25 1.875 -26 3 C-23.40212471 3.15144564 -20.84891179 3.23136981 -18.25 3.25 C-17.19425781 3.2809375 -17.19425781 3.2809375 -16.1171875 3.3125 C-10.07669749 3.35741071 -5.82266962 0 0 0 Z " fill="#151515" transform="translate(274,362)"/>
<path d="M0 0 C3.77556505 -0.35957762 5.76995408 -0.11727831 9.1875 1.625 C12.75852039 4.64052833 14.6612063 7.26276201 15.24609375 11.98828125 C15.37590749 16.04305157 15.03512696 19.46530581 13 23 C12.01 23.33 11.02 23.66 10 24 C9.96261719 23.35933594 9.92523438 22.71867187 9.88671875 22.05859375 C9.45789827 16.41666159 8.85798703 11.92756384 6 7 C4.03625365 5.61382611 2.04087808 4.26987969 0 3 C0 2.01 0 1.02 0 0 Z " fill="#1D1D1D" transform="translate(316,266)"/>
<path d="M0 0 C1.629375 0.144375 3.25875 0.28875 4.9375 0.4375 C6.31228516 0.55931641 6.31228516 0.55931641 7.71484375 0.68359375 C10 1 10 1 11 2 C11.27314815 7.73611111 11.27314815 7.73611111 11 10 C9 12 9 12 5.875 12.125 C4.92625 12.08375 3.9775 12.0425 3 12 C3 13.65 3 15.3 3 17 C2.01 17 1.02 17 0 17 C0 11.39 0 5.78 0 0 Z " fill="#3A3A3A" transform="translate(195,138)"/>
<path d="M0 0 C0.99 0 1.98 0 3 0 C3 5.28 3 10.56 3 16 C-3.8359375 16.29296875 -3.8359375 16.29296875 -6 16 C-8.31282587 12.53076119 -8.42478586 11.07794425 -8 7 C-6.8125 5.0625 -6.8125 5.0625 -5 4 C-2.3125 4.3125 -2.3125 4.3125 0 5 C0 3.35 0 1.7 0 0 Z " fill="#212121" transform="translate(311,134)"/>
<path d="M0 0 C1.32 0 2.64 0 4 0 C3.67484655 2.9563952 3.45925414 4.55539178 1.28515625 6.66015625 C-7.37439577 12.12374004 -15.89585946 16.17504501 -26.25 16.0625 C-27.32765625 16.05347656 -28.4053125 16.04445313 -29.515625 16.03515625 C-30.33546875 16.02355469 -31.1553125 16.01195312 -32 16 C-32 15.67 -32 15.34 -32 15 C-31.31292969 14.96261719 -30.62585938 14.92523438 -29.91796875 14.88671875 C-29.01691406 14.82097656 -28.11585938 14.75523437 -27.1875 14.6875 C-26.29417969 14.62949219 -25.40085938 14.57148438 -24.48046875 14.51171875 C-21.68591533 13.93520458 -20.72414385 13.22821249 -19 11 C-19 10.67 -19 10.34 -19 10 C-18.443125 9.84144531 -17.88625 9.68289063 -17.3125 9.51953125 C-12.21037671 7.95959153 -8.0328053 6.00428484 -3.62890625 2.98828125 C-2 2 -2 2 0 2 C0 1.34 0 0.68 0 0 Z " fill="#242424" transform="translate(280,346)"/>
<path d="M0 0 C-0.33 0.33 -0.66 0.66 -1 1 C0.485 1.99 0.485 1.99 2 3 C-7.49442435 8.11238234 -18.59310044 8.55543085 -29 6 C-29.99 5.67 -30.98 5.34 -32 5 C-31.67 3.68 -31.34 2.36 -31 1 C-30.0925 1.165 -29.185 1.33 -28.25 1.5 C-19.76012585 2.66628574 -12.05472329 2.50536042 -3.9609375 -0.44140625 C-2 -1 -2 -1 0 0 Z " fill="#DCDCDC" transform="translate(272,359)"/>
<path d="M0 0 C1.65 0 3.3 0 5 0 C5.67220351 1.93558599 6.33758077 3.87354372 7 5.8125 C7.556875 7.43091797 7.556875 7.43091797 8.125 9.08203125 C9 12 9 12 9 15 C7.68 15 6.36 15 5 15 C5 14.01 5 13.02 5 12 C3.02 12 1.04 12 -1 12 C-1 12.99 -1 13.98 -1 15 C-2.32 15 -3.64 15 -5 15 C-4.54705135 13.24859857 -4.08741252 11.49892656 -3.625 9.75 C-3.36976563 8.77546875 -3.11453125 7.8009375 -2.8515625 6.796875 C-2.10401491 4.34162697 -1.22876183 2.24382595 0 0 Z " fill="#2E2E2E" transform="translate(160,135)"/>
<path d="M0 0 C2.9375 0.75 2.9375 0.75 4.9375 2.75 C5.3125 5.6875 5.3125 5.6875 4.9375 8.75 C2.78660944 11.1398784 1.499805 11.68305893 -1.6875 12.0625 C-4.0625 11.75 -4.0625 11.75 -6.0625 9.75 C-6.36328125 7.875 -6.36328125 7.875 -6.375 5.75 C-6.39175781 5.04875 -6.40851563 4.3475 -6.42578125 3.625 C-6.30589844 3.00625 -6.18601563 2.3875 -6.0625 1.75 C-3.0625 -0.25 -3.0625 -0.25 0 0 Z " fill="#333333" transform="translate(239.0625,138.25)"/>
<path d="M0 0 C-2 1 -2 1 -5 1 C-4.01 1.99 -3.02 2.98 -2 4 C-2.87398438 3.7834375 -2.87398438 3.7834375 -3.765625 3.5625 C-9.80696728 2.19464892 -15.34350714 1.86983535 -21.53125 2.125 C-24 2 -24 2 -26 0 C-27.31747324 -0.69748583 -28.64914193 -1.36959957 -30 -2 C-19.83341516 -3.62665357 -9.47133345 -4.54624006 0 0 Z " fill="#1A1A1A" transform="translate(312,164)"/>
<path d="M0 0 C0.33 0 0.66 0 1 0 C0.125 7.625 0.125 7.625 -1 11 C1.64 11 4.28 11 7 11 C7.33 11.99 7.66 12.98 8 14 C1.07 14 -5.86 14 -13 14 C-13 13.01 -13 12.02 -13 11 C-10.36 11 -7.72 11 -5 11 C-4.67 9.02 -4.34 7.04 -4 5 C-3.34 5 -2.68 5 -2 5 C-1.34 3.35 -0.68 1.7 0 0 Z " fill="#1E1E1E" transform="translate(176,243)"/>
<path d="M0 0 C1 1 1 1 1.0625 3.5625 C1.041875 4.366875 1.02125 5.17125 1 6 C-1.31 6 -3.62 6 -6 6 C-5.67 6.66 -5.34 7.32 -5 8 C-3.02 8 -1.04 8 1 8 C1 8.66 1 9.32 1 10 C-1.78863007 11.39431504 -3.92078868 11.25660094 -7 11 C-9.31282587 7.53076119 -9.42478586 6.07794425 -9 2 C-6.69566258 -1.96858112 -4.04869963 -1.05618251 0 0 Z " fill="#1F1F1F" transform="translate(326,139)"/>
<path d="M0 0 C0.99 0 1.98 0 3 0 C3 2.97 3 5.94 3 9 C4.32 9 5.64 9 7 9 C7 6.03 7 3.06 7 0 C7.99 0 8.98 0 10 0 C10 3.96 10 7.92 10 12 C3.06640625 12.09765625 3.06640625 12.09765625 1 12 C0 11 0 11 -0.09765625 8.49609375 C-0.08605469 7.48675781 -0.07445312 6.47742188 -0.0625 5.4375 C-0.05347656 4.42558594 -0.04445312 3.41367188 -0.03515625 2.37109375 C-0.02355469 1.58863281 -0.01195312 0.80617187 0 0 Z " fill="#242424" transform="translate(171,138)"/>
<path d="M0 0 C0.99 0.66 1.98 1.32 3 2 C3 2.66 3 3.32 3 4 C1.700625 3.814375 0.40125 3.62875 -0.9375 3.4375 C-3.08575543 3.1018371 -3.08575543 3.1018371 -5 3 C-6.41577477 4.18424326 -6.41577477 4.18424326 -6.0625 7.5625 C-6.041875 8.696875 -6.02125 9.83125 -6 11 C-3.03 11.495 -3.03 11.495 0 12 C0 11.34 0 10.68 0 10 C0.99 10 1.98 10 3 10 C1.125 13.875 1.125 13.875 0 15 C-3.375 14.875 -3.375 14.875 -7 14 C-9.41998348 11.26776059 -9.94144259 9.48797841 -10.375 5.875 C-10 3 -10 3 -8.9375 1.125 C-5.92517484 -0.62409203 -3.40497373 -0.30401551 0 0 Z " fill="#171717" transform="translate(285,135)"/>
<path d="M0 0 C0.99 0 1.98 0 3 0 C3 3.3 3 6.6 3 10 C4.32 10 5.64 10 7 10 C7 6.7 7 3.4 7 0 C7.99 0 8.98 0 10 0 C10 3.96 10 7.92 10 12 C3.9453125 12.1953125 3.9453125 12.1953125 2 12 C0 10 0 10 -0.1953125 7.6171875 C-0.17210937 6.71226562 -0.14890625 5.80734375 -0.125 4.875 C-0.10695312 3.96492187 -0.08890625 3.05484375 -0.0703125 2.1171875 C-0.04710937 1.41851562 -0.02390625 0.71984375 0 0 Z " fill="#2A2A2A" transform="translate(246,138)"/>
<path d="M0 0 C1.125 3.75 1.125 3.75 0 6 C0.66 6 1.32 6 2 6 C1.69024532 7.77131561 1.37709575 9.54203778 1.0625 11.3125 C0.88847656 12.29863281 0.71445313 13.28476563 0.53515625 14.30078125 C0 17 0 17 -1 20 C-1.99 20 -2.98 20 -4 20 C-5.70532323 21.94009522 -5.70532323 21.94009522 -7 24 C-6.31184495 18.61671112 -4.69258365 13.73143827 -2.9375 8.625 C-2.51500977 7.37783203 -2.51500977 7.37783203 -2.08398438 6.10546875 C-1.39342899 4.06891559 -0.69727821 2.03426119 0 0 Z " fill="#262626" transform="translate(180,224)"/>
<path d="M0 0 C0 3.92896395 -1.00299863 7.19893228 -2 11 C1.54159657 11.05841253 5.08306793 11.09373452 8.625 11.125 C10.12353516 11.15013672 10.12353516 11.15013672 11.65234375 11.17578125 C16.86033146 11.21027123 21.12391697 11.06295821 26 9 C27.32911682 8.65023242 28.66082739 8.30903983 30 8 C30 8.99 30 9.98 30 11 C26.16771394 12.7771642 23.14107521 13.25652492 18.9296875 13.265625 C17.78628906 13.26820313 16.64289063 13.27078125 15.46484375 13.2734375 C13.68787109 13.26183594 13.68787109 13.26183594 11.875 13.25 C10.08642578 13.26160156 10.08642578 13.26160156 8.26171875 13.2734375 C7.12089844 13.27085937 5.98007813 13.26828125 4.8046875 13.265625 C3.76296387 13.26336914 2.72124023 13.26111328 1.64794922 13.25878906 C-1 13 -1 13 -4 11 C-3.38461538 3.49230769 -3.38461538 3.49230769 -1.4375 1 C-0.963125 0.67 -0.48875 0.34 0 0 Z " fill="#370300" transform="translate(239,328)"/>
<path d="M0 0 C1.4540625 0.0309375 1.4540625 0.0309375 2.9375 0.0625 C3.2675 1.0525 3.5975 2.0425 3.9375 3.0625 C2.2875 3.0625 0.6375 3.0625 -1.0625 3.0625 C-1.0625 3.7225 -1.0625 4.3825 -1.0625 5.0625 C0.5875 5.3925 2.2375 5.7225 3.9375 6.0625 C4.5625 7.9375 4.5625 7.9375 4.9375 10.0625 C2.9375 12.0625 2.9375 12.0625 -0.6875 12.1875 C-1.80125 12.14625 -2.915 12.105 -4.0625 12.0625 C-4.0625 11.0725 -4.0625 10.0825 -4.0625 9.0625 C-1.0925 9.5575 -1.0925 9.5575 1.9375 10.0625 C0.54554085 7.2785817 -1.21825779 7.08351003 -4.0625 6.0625 C-4.105221 4.39638095 -4.10313832 2.72867115 -4.0625 1.0625 C-3.0625 0.0625 -3.0625 0.0625 0 0 Z " fill="#1F1F1F" transform="translate(188.0625,137.9375)"/>
<path d="M0 0 C1.2065625 0.0309375 1.2065625 0.0309375 2.4375 0.0625 C2.7675 1.0525 3.0975 2.0425 3.4375 3.0625 C1.7875 3.0625 0.1375 3.0625 -1.5625 3.0625 C-1.5625 3.7225 -1.5625 4.3825 -1.5625 5.0625 C0.0875 5.3925 1.7375 5.7225 3.4375 6.0625 C3.7675 7.7125 4.0975 9.3625 4.4375 11.0625 C1.72870665 12.41689668 -0.57183268 12.12751451 -3.5625 12.0625 C-3.8925 11.0725 -4.2225 10.0825 -4.5625 9.0625 C-1.5925 9.5575 -1.5925 9.5575 1.4375 10.0625 C0.04554085 7.2785817 -1.71825779 7.08351003 -4.5625 6.0625 C-3.48963568 0.08511307 -3.48963568 0.08511307 0 0 Z " fill="#202020" transform="translate(263.5625,137.9375)"/>
<path d="M0 0 C3.125 -0.1875 3.125 -0.1875 6 0 C6.33 1.32 6.66 2.64 7 4 C4.03 3.505 4.03 3.505 1 3 C1.33 4.98 1.66 6.96 2 9 C2.99 9.33 3.98 9.66 5 10 C5 9.34 5 8.68 5 8 C5.99 8.33 6.98 8.66 8 9 C7.01 10.485 7.01 10.485 6 12 C3 12.3125 3 12.3125 0 12 C-2 10 -2 10 -2.25 6.5625 C-2 3 -2 3 0 0 Z " fill="#202020" transform="translate(217,138)"/>
<path d="M0 0 C1.32 0.33 2.64 0.66 4 1 C3.34002795 6.77475542 0.08581816 10.11847275 -4 14 C-4.33 13.34 -4.66 12.68 -5 12 C-5.66 12.66 -6.32 13.32 -7 14 C-7 10.0345034 -5.47149789 9.03641169 -3 6 C-1.95548562 4.02288349 -0.94301862 2.02749004 0 0 Z " fill="#191919" transform="translate(322,235)"/>
<path d="M0 0 C1.32 0.33 2.64 0.66 4 1 C4.36 6.4 4.36 6.4 2.875 8.875 C0.13083761 10.52149743 -1.8694571 10.39964378 -5 10 C-7.1519437 6.77208445 -7.20086443 5.71599191 -7 2 C-6.34 1.67 -5.68 1.34 -5 1 C-4.67 2.65 -4.34 4.3 -4 6 C-2.68 6.33 -1.36 6.66 0 7 C0 4.69 0 2.38 0 0 Z " fill="#444444" transform="translate(297,140)"/>
<path d="M0 0 C1.47906892 -0.02689216 2.95827483 -0.04634621 4.4375 -0.0625 C5.26121094 -0.07410156 6.08492187 -0.08570313 6.93359375 -0.09765625 C9 0 9 0 10 1 C10.27314815 6.73611111 10.27314815 6.73611111 10 9 C9.34 9.66 8.68 10.32 8 11 C5.375 10.625 5.375 10.625 3 10 C4.32 9.67 5.64 9.34 7 9 C7 6.69 7 4.38 7 2 C5.68 2.33 4.36 2.66 3 3 C2.67 4.65 2.34 6.3 2 8 C1.34 7.67 0.68 7.34 0 7 C0 4.69 0 2.38 0 0 Z " fill="#0F0F0F" transform="translate(196,139)"/>
<path d="M0 0 C0.33 0.66 0.66 1.32 1 2 C0.34 2 -0.32 2 -1 2 C-1 4.31 -1 6.62 -1 9 C-2.65 8.67 -4.3 8.34 -6 8 C-6.33 6.68 -6.66 5.36 -7 4 C-7.33 5.65 -7.66 7.3 -8 9 C-8.33 9 -8.66 9 -9 9 C-9.36 3.6 -9.36 3.6 -7.875 1.125 C-5.21965017 -0.4682099 -3.03210482 -0.20214032 0 0 Z " fill="#5C5C5C" transform="translate(298,138)"/>
<path d="M0 0 C1 3 1 3 0.125 5.0625 C-0.24625 5.701875 -0.6175 6.34125 -1 7 C-1.33 7.66 -1.66 8.32 -2 9 C-2.66 9 -3.32 9 -4 9 C-3.67 9.99 -3.34 10.98 -3 12 C1.099361 12.9327418 5.12043288 13.28825262 9.3125 13.5625 C10.56675781 13.64628906 11.82101563 13.73007812 13.11328125 13.81640625 C14.06589844 13.87699219 15.01851563 13.93757813 16 14 C16 14.33 16 14.66 16 15 C13.64575325 15.02726927 11.29183038 15.04696719 8.9375 15.0625 C6.97103516 15.07990234 6.97103516 15.07990234 4.96484375 15.09765625 C1.1836481 15.00452335 -2.27920707 14.61448726 -6 14 C-6.3227506 9.37390802 -5.84450614 6.71973879 -3 3 C-2.34 3 -1.68 3 -1 3 C-0.67 2.01 -0.34 1.02 0 0 Z " fill="#C12E0F" transform="translate(243,325)"/>
<path d="M0 0 C3.00021487 0.14214728 6.00011789 0.28861696 9 0.4375 C9.83917969 0.47681641 10.67835938 0.51613281 11.54296875 0.55664062 C16.74013458 0.81851332 21.84457153 1.2899352 27 2 C27 2.33 27 2.66 27 3 C17.76 3.33 8.52 3.66 -1 4 C-0.67 2.68 -0.34 1.36 0 0 Z " fill="#030303" transform="translate(181,226)"/>
<path d="M0 0 C0 3 0 3 -1.65234375 4.99291992 C-2.78349609 6.10050659 -2.78349609 6.10050659 -3.9375 7.23046875 C-4.74960938 8.03291016 -5.56171875 8.83535156 -6.3984375 9.66210938 C-7.25695312 10.49548828 -8.11546875 11.32886719 -9 12.1875 C-10.28777344 13.4549707 -10.28777344 13.4549707 -11.6015625 14.74804688 C-13.7278365 16.83888298 -15.86078464 18.92241983 -18 21 C-18.66 20.67 -19.32 20.34 -20 20 C-17.79776179 17.59850306 -15.58712559 15.20488935 -13.375 12.8125 C-12.75753906 12.13896484 -12.14007813 11.46542969 -11.50390625 10.77148438 C-7.8733195 6.85427236 -4.18715347 3.3175139 0 0 Z " fill="#CECECE" transform="translate(151,120)"/>
<path d="M0 0 C1.2890625 -0.01417969 2.578125 -0.02835937 3.90625 -0.04296875 C8.72676465 0.26617295 11.51913921 1.53359281 15.5 4.1875 C15.5 4.8475 15.5 5.5075 15.5 6.1875 C16.16 6.1875 16.82 6.1875 17.5 6.1875 C17.17 7.5075 16.84 8.8275 16.5 10.1875 C16.5 9.1975 16.5 8.2075 16.5 7.1875 C15.79875 6.919375 15.0975 6.65125 14.375 6.375 C11.5 5.1875 11.5 5.1875 8.9375 3.5625 C1.37077739 0.53581096 -6.88588258 1.84469464 -14.5 4.1875 C-12.5 1.1875 -12.5 1.1875 -10.34375 0.51171875 C-6.87942488 0.11674762 -3.48720625 0.01743603 0 0 Z " fill="#460800" transform="translate(260.5,317.8125)"/>
<path d="M0 0 C1.125 3.75 1.125 3.75 0 6 C-0.22467831 7.53668865 -0.40796805 9.07968054 -0.5625 10.625 C-0.64628906 11.44226563 -0.73007813 12.25953125 -0.81640625 13.1015625 C-0.87699219 13.72804687 -0.93757812 14.35453125 -1 15 C-0.34 15 0.32 15 1 15 C0.67 15.99 0.34 16.98 0 18 C-0.33 17.67 -0.66 17.34 -1 17 C-1.33 22.61 -1.66 28.22 -2 34 C-2.33 34 -2.66 34 -3 34 C-3.08829061 30.20848417 -3.14081946 26.41723835 -3.1875 22.625 C-3.21263672 21.56410156 -3.23777344 20.50320312 -3.26367188 19.41015625 C-3.32804088 12.4153909 -2.44491029 6.56202529 0 0 Z " fill="#616161" transform="translate(255,190)"/>
<path d="M0 0 C2.31 0 4.62 0 7 0 C7 0.66 7 1.32 7 2 C5.68 2.33 4.36 2.66 3 3 C3 5.64 3 8.28 3 11 C2.01 11 1.02 11 0 11 C0 7.37 0 3.74 0 0 Z " fill="#1C1C1C" transform="translate(330,139)"/>
<path d="M0 0 C1.32 0.33 2.64 0.66 4 1 C4.25 3.8125 4.25 3.8125 4 7 C1.84910944 9.3898784 0.562305 9.93305893 -2.625 10.3125 C-5 10 -5 10 -7 8 C-6.67 7.01 -6.34 6.02 -6 5 C-6 5.66 -6 6.32 -6 7 C-4.02 7 -2.04 7 0 7 C0 4.69 0 2.38 0 0 Z " fill="#222222" transform="translate(240,140)"/>
<path d="M0 0 C0.33 0.99 0.66 1.98 1 3 C1.99 3.33 2.98 3.66 4 4 C3.01 4 2.02 4 1 4 C1.33 4.99 1.66 5.98 2 7 C3.98 7 5.96 7 8 7 C8 7.66 8 8.32 8 9 C5.21136993 10.39431504 3.07921132 10.25660094 0 10 C-2.29013653 6.5647952 -2.17842973 5.014669 -2 1 C-1.34 0.67 -0.68 0.34 0 0 Z " fill="#161616" transform="translate(319,140)"/>
<path d="M0 0 C0.33 0.66 0.66 1.32 1 2 C1.66 2 2.32 2 3 2 C2.01 5.3 1.02 8.6 0 12 C-0.66 11.67 -1.32 11.34 -2 11 C-2.66 12.32 -3.32 13.64 -4 15 C-5 13 -5 13 -4.00390625 9.9609375 C-3.52824219 8.77757812 -3.05257812 7.59421875 -2.5625 6.375 C-2.08941406 5.18648437 -1.61632812 3.99796875 -1.12890625 2.7734375 C-0.75636719 1.85820312 -0.38382813 0.94296875 0 0 Z " fill="#404040" transform="translate(189,198)"/>
<path d="M0 0 C0.33 0 0.66 0 1 0 C1 3.63 1 7.26 1 11 C0.01 10.67 -0.98 10.34 -2 10 C-2 9.34 -2 8.68 -2 8 C-3.98 8.33 -5.96 8.66 -8 9 C-8.33 8.01 -8.66 7.02 -9 6 C-6.69 6 -4.38 6 -2 6 C-1.855625 5.38125 -1.71125 4.7625 -1.5625 4.125 C-1 2 -1 2 0 0 Z " fill="#DEDEDE" transform="translate(329,139)"/>
<path d="M0 0 C0.33 1.32 0.66 2.64 1 4 C-1.3125 6.0625 -1.3125 6.0625 -4 8 C-4.99 7.67 -5.98 7.34 -7 7 C-7.99 7.495 -7.99 7.495 -9 8 C-9.66 7.34 -10.32 6.68 -11 6 C-3.57142857 1.71428571 -3.57142857 1.71428571 0 0 Z " fill="#1C1C1C" transform="translate(317,246)"/>
<path d="M0 0 C2.3431213 0.25561323 4.67843403 0.59270772 7 1 C7.33 1.66 7.66 2.32 8 3 C6.35 3 4.7 3 3 3 C3.99 3.99 4.98 4.98 6 6 C-2.415 4.515 -2.415 4.515 -11 3 C-11 2.67 -11 2.34 -11 2 C-5.555 1.505 -5.555 1.505 0 1 C0 0.67 0 0.34 0 0 Z " fill="#797979" transform="translate(304,162)"/>
<path d="M0 0 C3 2 3 2 4 5 C6.50447516 6.21869929 6.50447516 6.21869929 9 7 C9 7.66 9 8.32 9 9 C6.03 8.505 6.03 8.505 3 8 C2.67 8.66 2.34 9.32 2 10 C1.01 10.495 1.01 10.495 0 11 C0 7.37 0 3.74 0 0 Z " fill="#D6D6D6" transform="translate(181,139)"/>
<path d="M0 0 C8.57142857 0.85714286 8.57142857 0.85714286 12 3 C9.99332033 4.00333983 8.16739976 4.45815006 6 5 C5.01 5.495 5.01 5.495 4 6 C1.875 5.0625 1.875 5.0625 0 4 C0 2.68 0 1.36 0 0 Z " fill="#323232" transform="translate(228,352)"/>
<path d="M0 0 C1.125 3.75 1.125 3.75 0 6 C0.66 6 1.32 6 2 6 C1.71715982 7.77226453 1.42339502 9.542788 1.125 11.3125 C0.96257812 12.29863281 0.80015625 13.28476563 0.6328125 14.30078125 C0 17 0 17 -2 20 C-1.67 16.7 -1.34 13.4 -1 10 C-1.66 10.66 -2.32 11.32 -3 12 C-2.40075776 7.80530429 -1.42500059 3.99000166 0 0 Z " fill="#656565" transform="translate(180,224)"/>
<path d="M0 0 C0.99 0 1.98 0 3 0 C3 3.96 3 7.92 3 12 C2.01 12 1.02 12 0 12 C0 8.04 0 4.08 0 0 Z " fill="#252525" transform="translate(209,138)"/>
<path d="M0 0 C0.99 0 1.98 0 3 0 C3 3.96 3 7.92 3 12 C2.01 12 1.02 12 0 12 C0 8.04 0 4.08 0 0 Z " fill="#252525" transform="translate(227,138)"/>
<path d="M0 0 C0.99 0.33 1.98 0.66 3 1 C2.52140759 2.60433809 2.04210442 4.20846416 1.5625 5.8125 C1.29566406 6.70582031 1.02882812 7.59914062 0.75390625 8.51953125 C0.19612127 10.35473055 -0.39344575 12.18033726 -1 14 C-1.66 14 -2.32 14 -3 14 C-2.48594831 9.03083364 -1.76615118 4.70973649 0 0 Z " fill="#1D1D1D" transform="translate(193,186)"/>
<path d="M0 0 C0.99 0 1.98 0 3 0 C3.33 3.63 3.66 7.26 4 11 C2.68 11 1.36 11 0 11 C0 7.37 0 3.74 0 0 Z " fill="#1E1E1E" transform="translate(171,138)"/>
<path d="M0 0 C3.5625 0.25 3.5625 0.25 6.5625 2.25 C6.5625 2.91 6.5625 3.57 6.5625 4.25 C4.57682292 3.95703125 2.59114583 3.6640625 0.60546875 3.37109375 C-1.6400342 3.11095201 -1.6400342 3.11095201 -4.4375 4.25 C-5.0975 5.24 -5.7575 6.23 -6.4375 7.25 C-5.67392329 2.41401417 -5.32550528 0.38730947 0 0 Z " fill="#272727" transform="translate(281.4375,134.75)"/>
<path d="M0 0 C2.475 0.495 2.475 0.495 5 1 C5 2.65 5 4.3 5 6 C3.35 6.33 1.7 6.66 0 7 C0 4.69 0 2.38 0 0 Z " fill="#DBDBDB" transform="translate(236,141)"/>
<path d="M0 0 C2.475 0.495 2.475 0.495 5 1 C5 2.65 5 4.3 5 6 C3.0625 6.5625 3.0625 6.5625 1 7 C0 6 0 6 -0.0625 2.9375 C-0.041875 1.968125 -0.02125 0.99875 0 0 Z " fill="#DDDDDD" transform="translate(306,141)"/>
<path d="M0 0 C0.33 0 0.66 0 1 0 C1.125 2.875 1.125 2.875 1 6 C-1 8 -1 8 -3.625 8.125 C-4.40875 8.08375 -5.1925 8.0425 -6 8 C-6.33 9.65 -6.66 11.3 -7 13 C-7.33 13 -7.66 13 -8 13 C-8.36075949 7.58860759 -8.36075949 7.58860759 -6.8125 5.0625 C-5 4 -5 4 -2.3125 4.3125 C-1.549375 4.539375 -0.78625 4.76625 0 5 C0 3.35 0 1.7 0 0 Z " fill="#393939" transform="translate(311,134)"/>
<path d="M0 0 C0.66 0.33 1.32 0.66 2 1 C1.52949219 1.51949219 1.05898438 2.03898438 0.57421875 2.57421875 C-2.69723701 6.23852013 -5.54122774 9.72950082 -8 14 C-8.99 14.495 -8.99 14.495 -10 15 C-8.6393389 9.80474854 -6.64232612 6.82444243 -3 3 C-2.34 3 -1.68 3 -1 3 C-0.67 2.01 -0.34 1.02 0 0 Z " fill="#3F3F3F" transform="translate(269,169)"/>
<path d="M0 0 C1.65 0 3.3 0 5 0 C5.66 2.31 6.32 4.62 7 7 C6.01 6.34 5.02 5.68 4 5 C1.37468476 4.83286431 1.37468476 4.83286431 -1 5 C-0.67 3.35 -0.34 1.7 0 0 Z " fill="#818181" transform="translate(161,139)"/>
<path d="M0 0 C1.6875 2.25 1.6875 2.25 1.6875 5.25 C0.3675 5.25 -0.9525 5.25 -2.3125 5.25 C-2.3125 3.93 -2.3125 2.61 -2.3125 1.25 C-3.9625 1.25 -5.6125 1.25 -7.3125 1.25 C-7.3125 0.59 -7.3125 -0.07 -7.3125 -0.75 C-3.95176486 -1.87024505 -2.90905552 -2.20144742 0 0 Z " fill="#202020" transform="translate(167.3125,144.75)"/>
<path d="M0 0 C0.66 0.33 1.32 0.66 2 1 C2.1953125 7.0546875 2.1953125 7.0546875 2 9 C1.34 9.66 0.68 10.32 0 11 C-2.625 10.625 -2.625 10.625 -5 10 C-3.68 9.67 -2.36 9.34 -1 9 C-1.020625 8.071875 -1.04125 7.14375 -1.0625 6.1875 C-1 3 -1 3 0 0 Z " fill="#272727" transform="translate(204,139)"/>
<path d="M0 0 C1.32 0 2.64 0 4 0 C4 1.98 4 3.96 4 6 C2.35 5.67 0.7 5.34 -1 5 C-0.67 3.35 -0.34 1.7 0 0 Z " fill="#EAEAEA" transform="translate(199,141)"/>
<path d="M0 0 C0.66 0.33 1.32 0.66 2 1 C0.89764064 1.96041171 -0.20696624 2.91824407 -1.3125 3.875 C-1.92738281 4.40867187 -2.54226563 4.94234375 -3.17578125 5.4921875 C-6.4441573 8.19367177 -7.6203882 9 -12 9 C-12 8.34 -12 7.68 -12 7 C-11.43410156 6.89042969 -10.86820312 6.78085937 -10.28515625 6.66796875 C-9.18494141 6.43013672 -9.18494141 6.43013672 -8.0625 6.1875 C-7.33160156 6.03667969 -6.60070312 5.88585937 -5.84765625 5.73046875 C-5.23792969 5.48941406 -4.62820313 5.24835938 -4 5 C-3.67 4.01 -3.34 3.02 -3 2 C-2.01 1.34 -1.02 0.68 0 0 Z " fill="#D33515" transform="translate(272,330)"/>
<path d="M0 0 C0.33 0 0.66 0 1 0 C1.33 2.31 1.66 4.62 2 7 C3.65 7 5.3 7 7 7 C7 7.66 7 8.32 7 9 C4.125 9.1875 4.125 9.1875 1 9 C-1.14809171 5.77786243 -1.29386153 4.72224599 -1 1 C-0.67 0.67 -0.34 0.34 0 0 Z " fill="#131313" transform="translate(291,141)"/>
<path d="M0 0 C1.2065625 0.0309375 1.2065625 0.0309375 2.4375 0.0625 C2.7675 1.0525 3.0975 2.0425 3.4375 3.0625 C1.7875 3.0625 0.1375 3.0625 -1.5625 3.0625 C-1.8925 3.7225 -2.2225 4.3825 -2.5625 5.0625 C-3.5525 5.5575 -3.5525 5.5575 -4.5625 6.0625 C-3.48963568 0.08511307 -3.48963568 0.08511307 0 0 Z " fill="#3D3D3D" transform="translate(263.5625,137.9375)"/>
<path d="M0 0 C0.66 0 1.32 0 2 0 C2 3.96 2 7.92 2 12 C1.34 12 0.68 12 0 12 C-0.92844389 7.66726186 -0.92844389 4.33273814 0 0 Z " fill="#020202" transform="translate(312,134)"/>
<path d="M0 0 C1.5625 1.1875 1.5625 1.1875 3 3 C2.6875 5.6875 2.6875 5.6875 2 8 C3.32 8.33 4.64 8.66 6 9 C3.69 8.67 1.38 8.34 -1 8 C-0.67 5.36 -0.34 2.72 0 0 Z " fill="#363636" transform="translate(182,218)"/>
<path d="M0 0 C1.98 0 3.96 0 6 0 C6.33 0.99 6.66 1.98 7 3 C5.35 3 3.7 3 2 3 C1.67 3.66 1.34 4.32 1 5 C0.34 4.67 -0.32 4.34 -1 4 C-0.67 2.68 -0.34 1.36 0 0 Z " fill="#434343" transform="translate(185,138)"/>
<path d="M0 0 C1.32 0 2.64 0 4 0 C4 1.98 4 3.96 4 6 C2.68 6 1.36 6 0 6 C0 4.02 0 2.04 0 0 Z " fill="#F3F3F3" transform="translate(293,141)"/>
<path d="M0 0 C-1.44077046 3.36179774 -3.24750021 5.59156268 -6 8 C-6.66 8 -7.32 8 -8 8 C-6.48291727 4.46014029 -4.24676932 0 0 0 Z " fill="#BBBBBB" transform="translate(309,286)"/>
<path d="M0 0 C1.98 0 3.96 0 6 0 C6.33 1.32 6.66 2.64 7 4 C4.36 3.34 1.72 2.68 -1 2 C-0.67 1.34 -0.34 0.68 0 0 Z " fill="#424242" transform="translate(217,138)"/>
<path d="M0 0 C0 1.32 0 2.64 0 4 C-1.9375 4.5625 -1.9375 4.5625 -4 5 C-4.33 4.67 -4.66 4.34 -5 4 C-5.99 3.34 -6.98 2.68 -8 2 C-4.91190305 0.23537317 -3.76687864 0 0 0 Z " fill="#2B2B2B" transform="translate(274,362)"/>
<path d="M0 0 C1.32 0.33 2.64 0.66 4 1 C3.625 3.4375 3.625 3.4375 3 6 C2.01 6.495 2.01 6.495 1 7 C1.33 5.35 1.66 3.7 2 2 C1.34 2 0.68 2 0 2 C0 2.99 0 3.98 0 5 C-0.66 5 -1.32 5 -2 5 C-1.34 3.35 -0.68 1.7 0 0 Z " fill="#747474" transform="translate(322,235)"/>
<path d="M0 0 C0 1.32 0 2.64 0 4 C-1.32 4 -2.64 4 -4 4 C-4.66 2.68 -5.32 1.36 -6 0 C-3.50907189 -1.24546405 -2.58919267 -0.7767578 0 0 Z " fill="#888888" transform="translate(324,139)"/>
<path d="M0 0 C0 0.99 0 1.98 0 3 C-4.43076923 5.09230769 -4.43076923 5.09230769 -7.3125 4.625 C-7.869375 4.41875 -8.42625 4.2125 -9 4 C-2.25 0 -2.25 0 0 0 Z " fill="#2A0200" transform="translate(269,336)"/>
<path d="M0 0 C0.33 0.66 0.66 1.32 1 2 C0 5 0 5 -2.4375 6.75 C-3.7059375 7.36875 -3.7059375 7.36875 -5 8 C-5.66 7.67 -6.32 7.34 -7 7 C-4.69 4.69 -2.38 2.38 0 0 Z " fill="#550902" transform="translate(276,328)"/>
<path d="M0 0 C3.625 0.1875 3.625 0.1875 7 1 C7.33 1.66 7.66 2.32 8 3 C4.37 3 0.74 3 -3 3 C-2.01 2.01 -1.02 1.02 0 0 Z " fill="#505050" transform="translate(304,162)"/>
<path d="M0 0 C4.75 0.75 4.75 0.75 7 3 C4.03 3 1.06 3 -2 3 C-1.34 2.01 -0.68 1.02 0 0 Z " fill="#474747" transform="translate(174,147)"/>
<path d="M0 0 C0.33 0 0.66 0 1 0 C1.33 2.64 1.66 5.28 2 8 C1.01 8 0.02 8 -1 8 C-1.04241723 5.66705225 -1.04092937 3.33297433 -1 1 C-0.67 0.67 -0.34 0.34 0 0 Z " fill="#0D0D0D" transform="translate(305,141)"/>
<path d="M0 0 C0.66 0.33 1.32 0.66 2 1 C0.02 3.31 -1.96 5.62 -4 8 C-4.66 7.01 -5.32 6.02 -6 5 C-4.02 3.35 -2.04 1.7 0 0 Z " fill="#2B2B2B" transform="translate(154,104)"/>
</svg>
